<?xml version="1.0" encoding="UTF-8" standalone="no"?>
<!-- Created with Inkscape (http://www.inkscape.org/) -->

<svg
   width="21.928324mm"
   height="21.898323mm"
   viewBox="0 0 21.928324 21.898323"
   version="1.1"
   id="svg1880"
   inkscape:version="1.1.1 (3bf5ae0d25, 2021-09-20, custom)"
   sodipodi:docname="instagram.svg"
   xmlns:inkscape="http://www.inkscape.org/namespaces/inkscape"
   xmlns:sodipodi="http://sodipodi.sourceforge.net/DTD/sodipodi-0.dtd"
   xmlns="http://www.w3.org/2000/svg"
   xmlns:svg="http://www.w3.org/2000/svg">
  <sodipodi:namedview
     id="namedview1882"
     pagecolor="#505050"
     bordercolor="#eeeeee"
     borderopacity="1"
     inkscape:pageshadow="0"
     inkscape:pageopacity="0"
     inkscape:pagecheckerboard="0"
     inkscape:document-units="mm"
     showgrid="false"
     lock-margins="true"
     fit-margin-top="1"
     fit-margin-left="1"
     fit-margin-right="1"
     fit-margin-bottom="1"
     inkscape:zoom="0.45522587"
     inkscape:cx="-58.21286"
     inkscape:cy="-215.27775"
     inkscape:window-width="1364"
     inkscape:window-height="751"
     inkscape:window-x="0"
     inkscape:window-y="15"
     inkscape:window-maximized="1"
     inkscape:current-layer="layer1" />
  <defs
     id="defs1877" />
  <g
     inkscape:label="Слой 1"
     inkscape:groupmode="layer"
     id="layer1"
     transform="translate(118.48861,-205.26219)">
    <path
       style="fill:#ff00ff;stroke:none;stroke-width:0.0342465"
       d="m -109.92344,206.27917 c -0.75284,0.0988 -1.53552,0.0212 -2.29452,0.094 -1.47178,0.14121 -2.78685,0.72157 -3.79829,1.80927 -1.34787,1.44941 -1.38524,3.52063 -1.40732,5.3767 -0.0279,2.35191 -0.16188,4.7716 0.0629,7.12328 0.12333,1.29054 0.45174,2.62784 1.37701,3.59588 2.08161,2.17781 5.09042,1.83627 7.84114,1.84935 1.93777,0.009 3.92642,0.12681 5.85615,-0.14682 0.57322,-0.0813 1.15726,-0.26078 1.67807,-0.51273 0.36916,-0.17863 0.713469,-0.39199 1.027404,-0.65689 1.460039,-1.23198 1.852563,-2.9279 1.95476,-4.74509 0.09457,-1.68185 -0.0094,-3.35472 0.03203,-5.03439 0.05057,-2.06451 0.196262,-4.49019 -0.983223,-6.30136 -0.207326,-0.31834 -0.461891,-0.58884 -0.72962,-0.85615 -1.858431,-1.85547 -4.600301,-1.51741 -6.986301,-1.57585 -0.83497,-0.0204 -1.66544,-0.009 -2.49999,5.4e-4 -0.3773,0.005 -0.75298,-0.0691 -1.13013,-0.0196 m -0.75344,1.81563 c 1.22846,-0.0582 2.46843,-0.015 3.69864,-0.015 1.16139,0 2.33762,-0.0473 3.49314,0.0627 1.28174,0.12198 2.48096,0.33426 3.30555,1.44416 1.048764,1.41171 0.804032,3.58062 0.804032,5.23972 0,1.8461 0.06348,3.70832 -0.06547,5.54794 -0.09011,1.28695 -0.463146,2.60037 -1.646882,3.30641 -0.75887,0.45263 -1.63459,0.56962 -2.5,0.6289 -2.38466,0.16328 -4.83835,0.0621 -7.22602,0.004 -1.42715,-0.035 -2.93931,-0.14353 -3.91725,-1.33614 -1.21538,-1.48212 -0.91151,-3.89574 -0.91151,-5.68492 0,-1.69962 -0.0506,-3.40907 0.0655,-5.10273 0.098,-1.43069 0.46705,-2.84493 1.85239,-3.56066 0.94415,-0.48779 2.01471,-0.48495 3.04794,-0.53384 m 8.21917,1.64477 c -1.476,0.27665 -1.05308,2.61616 0.4111,2.36004 1.58249,-0.27681 1.16644,-2.65573 -0.4111,-2.36004 m -5.27397,1.36835 c -1.79294,0.23542 -3.33167,0.97418 -4.25129,2.62248 -1.98654,3.56047 1.02454,8.04317 5.07321,7.55871 2.62519,-0.31413 4.51784,-2.58762 4.51784,-5.1957 0,-2.65011 -2.58637,-5.34699 -5.33976,-4.98549 m -0.10278,1.81035 c 0.37154,-0.0456 0.7691,-0.001 1.13013,0.0886 2.71253,0.67797 3.40318,4.42553 1.0274,5.96786 -0.45637,0.29627 -0.96866,0.46918 -1.50685,0.53357 -0.39037,0.0467 -0.82088,0.001 -1.19862,-0.10314 -2.65202,-0.73479 -3.29959,-4.37705 -0.99316,-5.93099 0.46058,-0.31031 0.99207,-0.48853 1.5411,-0.55596 z"
       id="path1352-4" />
  </g>
</svg>
