<?xml version="1.0" encoding="UTF-8" standalone="no"?>
<!-- Created with Inkscape (http://www.inkscape.org/) -->

<svg
   width="35.999668mm"
   height="35.999668mm"
   viewBox="0 0 35.999668 35.999667"
   version="1.1"
   id="svg1055"
   inkscape:version="1.1.1 (3bf5ae0d25, 2021-09-20, custom)"
   sodipodi:docname="kalendar_3.svg"
   xmlns:inkscape="http://www.inkscape.org/namespaces/inkscape"
   xmlns:sodipodi="http://sodipodi.sourceforge.net/DTD/sodipodi-0.dtd"
   xmlns="http://www.w3.org/2000/svg"
   xmlns:svg="http://www.w3.org/2000/svg">
  <sodipodi:namedview
     id="namedview1057"
     pagecolor="#505050"
     bordercolor="#eeeeee"
     borderopacity="1"
     inkscape:pageshadow="0"
     inkscape:pageopacity="0"
     inkscape:pagecheckerboard="0"
     inkscape:document-units="mm"
     showgrid="false"
     lock-margins="true"
     fit-margin-top="1"
     fit-margin-left="1"
     fit-margin-right="1"
     fit-margin-bottom="1"
     inkscape:zoom="2.5751464"
     inkscape:cx="56.889969"
     inkscape:cy="78.053815"
     inkscape:window-width="1366"
     inkscape:window-height="743"
     inkscape:window-x="0"
     inkscape:window-y="25"
     inkscape:window-maximized="1"
     inkscape:current-layer="layer1" />
  <defs
     id="defs1052" />
  <g
     inkscape:label="Слой 1"
     inkscape:groupmode="layer"
     id="layer1"
     transform="translate(-77.540719,-61.74961)">
    <g
       id="g966"
       transform="translate(-138.4538,-170.775)"
       style="stroke:none">
      <circle
         style="fill:none;fill-opacity:1;stroke:none;stroke-width:0.447168;stroke-linejoin:round"
         id="path275"
         cx="233.99435"
         cy="250.52444"
         r="16.776251" />
      <path
         style="fill:#f2f2f2;stroke:none;stroke-width:0.0693155"
         d="m 232.25009,247.37139 h -3.32715 c -0.246,-1.90493 -2.68078,-1.97272 -2.84194,0 -0.98116,0 -1.91422,0.20518 -2.3821,1.17837 -0.39717,0.82631 -0.17218,2.01493 -0.18285,2.91125 -0.023,1.93682 -0.069,3.88036 -0.069,5.82251 0,0.90547 -0.14223,1.97321 0.37348,2.77262 0.76351,1.18343 2.15141,0.97042 3.36957,0.97042 h 8.59513 c 1.15181,0 2.59136,0.25966 3.45122,-0.69592 0.67673,-0.75208 0.56908,-1.76471 0.56908,-2.70054 v -5.61456 c 3.49468,-0.28544 5.5937,-4.57483 4.77196,-7.69403 -0.78826,-2.99222 -3.40901,-4.79733 -6.43554,-4.78271 -1.12311,0.005 -2.24859,0.4021 -3.18851,1.00057 -1.00279,0.63854 -1.79929,1.60237 -2.30252,2.67309 -0.61144,1.30078 -0.66321,2.76604 -0.40079,4.15893 m 7.5554,3.74305 c 0,-1.42541 0.0893,-3.1321 -1.59426,-3.65841 -0.33756,-0.10557 -0.69066,-0.0846 -1.03973,-0.0846 -0.0921,-1.12658 -1.3111,-2.00204 -2.28443,-1.15556 -0.32655,0.28406 -0.31948,0.8645 -0.5993,1.0843 -0.23332,0.18328 -1.0055,0.13954 -1.13456,-0.14694 -0.19541,-0.43357 -0.14085,-0.98393 -0.14065,-1.44537 7.9e-4,-2.1354 1.39754,-4.13731 3.39647,-4.89194 3.70665,-1.39929 7.41822,1.36031 7.41676,5.23852 -5.2e-4,1.07918 -0.38428,2.09804 -0.99454,2.98057 -0.69835,1.01 -1.82653,1.80193 -3.02576,2.07947 M 229.68546,240.8907 c -1.75715,0.23713 -1.46748,2.94037 0.27726,2.70276 1.72713,-0.23519 1.44634,-2.93538 -0.27726,-2.70276 m 0.004,0.96689 c 0.49554,-0.12526 0.76711,0.63222 0.26562,0.76926 -0.52632,0.14383 -0.7735,-0.64089 -0.26562,-0.76926 m 5.76491,1.84213 c -0.29113,0.17647 -0.20268,0.52617 0,0.72802 0.48971,0.48763 1.21316,0.8268 1.7864,1.21087 0.3305,0.2214 0.70314,0.59806 1.10905,0.65954 0.7364,0.1116 1.92676,-0.46282 2.63399,-0.68324 0.26451,-0.0824 0.65891,-0.11625 0.87102,-0.30409 0.37153,-0.3289 0.0367,-0.79512 -0.38581,-0.76795 -0.71603,0.046 -1.45695,0.4046 -2.14878,0.58475 -0.31387,0.0817 -0.65413,0.24932 -0.97042,0.10265 -0.68158,-0.31614 -1.31423,-0.86387 -1.94084,-1.27838 -0.25896,-0.17128 -0.63376,-0.44674 -0.95461,-0.25217 m -7.43257,5.12734 -0.97042,0.0693 c 0,-0.52077 -0.14973,-1.31235 0.0418,-1.79915 0.14002,-0.3558 0.59605,-0.40529 0.78805,-0.0648 0.26444,0.46885 0.0145,1.26494 0.14058,1.79465 m 7.27813,0.0694 v -0.9011 c 0,-0.20747 -0.008,-0.41659 0.002,-0.62385 0.0175,-0.40411 0.41929,-0.8015 0.79484,-0.43967 0.24642,0.23734 0.34693,1.66856 0.0632,1.89336 -0.19312,0.15298 -0.62661,0.0712 -0.85931,0.0712 m -9.21897,-0.62385 c 0,0.40336 -0.10917,1.03073 0.18736,1.35623 0.32176,0.35331 2.22753,0.32108 2.52329,-0.0585 0.24587,-0.31545 0.13129,-0.92092 0.13129,-1.29765 h 5.47593 c -0.0487,0.38852 -0.16878,0.97541 0.10938,1.30389 0.34082,0.40252 2.14802,0.38734 2.49453,-0.003 0.28066,-0.31594 0.16871,-0.90977 0.16871,-1.30119 0.67909,0 1.37287,0.079 1.61963,0.83185 0.25591,0.78098 0.11326,1.75348 0.11326,2.56461 v 5.12935 c 0,0.81668 0.21897,2.04564 -0.24143,2.76639 -0.56984,0.89209 -2.18011,0.56076 -3.08572,0.56076 h -7.90198 c -0.8541,0 -2.31444,0.28641 -2.9439,-0.42872 -0.52527,-0.59688 -0.31392,-1.67431 -0.31392,-2.41322 v -5.96114 c 2.95672,0 5.91587,0.0349 8.87239,-2.6e-4 0.69961,-0.009 1.52862,0.0287 2.21803,-0.0793 0.232,-0.0363 0.47918,-0.20919 0.45297,-0.47391 -0.0291,-0.29452 -0.342,-0.39828 -0.59154,-0.41388 -0.68775,-0.0431 -1.39033,-0.003 -2.07946,-0.003 h -8.87239 c 0,-1.28761 0.20441,-2.07946 1.66357,-2.07946 m 10.81733,2.15072 c -0.73448,0.40238 0.20351,1.06836 0.75075,0.75859 0.68803,-0.38942 -0.22604,-1.04605 -0.75075,-0.75859 m -10.87909,3.16869 c -0.42816,0.18418 -0.43994,1.74294 -0.16407,2.06727 0.25467,0.2993 1.53652,0.27026 1.88185,0.12692 0.42968,-0.17842 0.4371,-1.75598 0.16407,-2.0769 -0.25875,-0.30416 -1.53457,-0.2666 -1.88185,-0.11729 m 3.18506,0 c -0.41944,0.17551 -0.44113,1.75376 -0.17024,2.07531 0.25161,0.29861 1.55058,0.25584 1.89148,0.10924 0.42816,-0.18417 0.43994,-1.74294 0.16407,-2.06726 -0.26091,-0.30666 -1.53458,-0.26403 -1.88531,-0.11729 m 3.12266,0.0198 c -0.40924,0.23034 -0.4536,1.70711 -0.16407,2.04745 0.25391,0.29847 1.62371,0.28488 1.9495,0.0974 0.44099,-0.25376 0.43502,-1.70987 0.11222,-2.05548 -0.26644,-0.2853 -1.56687,-0.2756 -1.89765,-0.0894 m 3.25332,-0.0198 c -0.47404,0.19319 -0.53968,1.69893 -0.22888,2.05764 0.26916,0.3106 1.52404,0.28079 1.88185,0.12691 0.44009,-0.1893 0.42096,-1.67231 0.16407,-2.01223 -0.26616,-0.35219 -1.43642,-0.32738 -1.81704,-0.17232 m 6.92851,0.47044 c -2.2698,0.52105 -1.42734,4.01455 0.8318,3.53184 2.30328,-0.49214 1.48265,-4.06307 -0.8318,-3.53184 m -5.89182,0.37923 v 0.48521 c -0.55736,-0.0183 -0.55736,-0.46691 0,-0.48521 m -9.56555,0.0693 v 0.41589 c -0.26305,-0.0573 -0.32551,-0.15048 -0.34658,-0.41589 h 0.34658 m 3.18851,0 c -0.0353,0.44271 -0.38109,0.44667 -0.41589,0 h 0.41589 m 3.18852,0 c -0.0348,0.44667 -0.38061,0.44271 -0.41589,0 h 0.41589 m 9.28836,0.44327 c 1.15237,-0.26041 1.55177,1.49985 0.41583,1.74724 -1.09748,0.239 -1.51968,-1.49783 -0.41583,-1.74724 m -16.76418,1.84609 c -0.33195,0.19658 -0.21821,0.78333 -0.21821,1.1071 0,0.27997 -0.0754,0.70973 0.12075,0.94034 0.2555,0.30034 1.62011,0.28433 1.94292,0.087 0.35614,-0.21779 0.3682,-1.74169 0.11264,-2.04501 -0.24475,-0.29044 -1.64258,-0.2763 -1.9581,-0.0894 m 6.37599,-0.0198 c -0.4441,0.19526 -0.41693,1.67445 -0.16573,2.01777 0.25556,0.34921 1.5074,0.32717 1.88559,0.17641 0.50954,-0.20316 0.50281,-1.69706 0.20552,-2.0769 -0.24212,-0.30943 -1.58531,-0.26673 -1.92538,-0.11728 m 3.18685,0.0198 c -0.42109,0.23699 -0.43419,1.63487 -0.16407,1.9924 0.26514,0.35081 1.52003,0.34575 1.88185,0.14203 0.40876,-0.23006 0.45451,-1.6956 0.16407,-2.03697 -0.2521,-0.2964 -1.55814,-0.2797 -1.88185,-0.0975 m -4.92792,0.39634 c -0.29646,0.0825 -0.46698,0.40057 -0.76378,0.47211 -0.26805,0.0646 -0.61885,-0.16108 -0.8191,0.1301 -0.31456,0.45742 0.30353,1.29316 0.81937,1.18447 0.42698,-0.0899 1.12229,-0.75873 1.30355,-1.14523 0.16691,-0.356 -0.15811,-0.74764 -0.54004,-0.64145 m -3.53613,0.4335 v 0.4159 h -0.34658 v -0.4159 h 0.34658 m 6.37703,0.4159 h -0.41589 v -0.4159 c 0.30257,0.0236 0.39233,0.11333 0.41589,0.4159 m 3.18852,-0.4159 c -0.0183,0.55737 -0.46691,0.55737 -0.48521,0 z"
         id="path271" />
    </g>
  </g>
</svg>
