<?xml version="1.0" encoding="UTF-8" standalone="no"?>
<svg
   xmlns:dc="http://purl.org/dc/elements/1.1/"
   xmlns:cc="http://creativecommons.org/ns#"
   xmlns:rdf="http://www.w3.org/1999/02/22-rdf-syntax-ns#"
   xmlns:svg="http://www.w3.org/2000/svg"
   xmlns="http://www.w3.org/2000/svg"
   xmlns:sodipodi="http://sodipodi.sourceforge.net/DTD/sodipodi-0.dtd"
   xmlns:inkscape="http://www.inkscape.org/namespaces/inkscape"
   width="246.85094mm"
   height="147.84737mm"
   viewBox="0 0 246.85094 147.84737"
   version="1.1"
   id="svg890"
   inkscape:version="1.0.2 (e86c870879, 2021-01-15)"
   sodipodi:docname="logo.svg">
  <defs
     id="defs884" />
  <sodipodi:namedview
     id="base"
     pagecolor="#ffffff"
     bordercolor="#666666"
     borderopacity="1.0"
     inkscape:pageopacity="0.0"
     inkscape:pageshadow="2"
     inkscape:zoom="0.64"
     inkscape:cx="822.53337"
     inkscape:cy="328.93929"
     inkscape:document-units="mm"
     inkscape:current-layer="g1533"
     showgrid="false"
     height="200mm"
     inkscape:window-width="1364"
     inkscape:window-height="751"
     inkscape:window-x="0"
     inkscape:window-y="15"
     inkscape:window-maximized="1"
     showguides="false"
     inkscape:guide-bbox="true"
     inkscape:document-rotation="0"
     lock-margins="true"
     fit-margin-top="2"
     fit-margin-left="2"
     fit-margin-right="2"
     fit-margin-bottom="2">
    <sodipodi:guide
       position="115.81365,82.985378"
       orientation="1,0"
       id="guide909"
       inkscape:locked="false" />
    <sodipodi:guide
       position="255.96013,107.79007"
       orientation="1,0"
       id="guide911"
       inkscape:locked="false" />
  </sodipodi:namedview>
  <metadata
     id="metadata887">
    <rdf:RDF>
      <cc:Work
         rdf:about="">
        <dc:format>image/svg+xml</dc:format>
        <dc:type
           rdf:resource="http://purl.org/dc/dcmitype/StillImage" />
        <dc:title></dc:title>
      </cc:Work>
    </rdf:RDF>
  </metadata>
  <g
     inkscape:label="Layer 1"
     inkscape:groupmode="layer"
     id="layer1"
     transform="translate(-0.1482727,-147.38866)">
    <g
       inkscape:export-ydpi="100"
       inkscape:export-xdpi="100"
       transform="translate(305.61249,141.49221)"
       id="g1533">
      <g
         id="g1509"
         transform="matrix(0.6515659,0,0,0.6515659,20.93266,-34.954372)">
        <path
           sodipodi:nodetypes="sccscccscsssssccsscccssssscssccsccscsscssccsscsscccccccscssccscsccsssccccccsssscasccccccsccccccccccccc"
           inkscape:connector-curvature="0"
           id="path1505"
           d="m -411.72063,230.66962 c 1.34654,-2.03306 3.31034,-5.20904 4.364,-7.05773 4.93509,-8.65882 7.4224,-12.47998 8.49847,-13.05587 0.49106,-0.26281 0.50662,-0.20825 0.32439,1.1374 -0.57116,4.21782 -2.89394,9.61882 -5.79176,13.46715 -1.93447,2.56901 -5.90008,6.45962 -8.25708,8.10091 l -1.58628,1.10461 z m -58.51933,-1.95233 c 2.48963,-4.84841 7.29274,-10.60085 12.37771,-14.82414 6.88833,-5.72105 8.37194,-7.04713 10.14166,-9.06475 5.95704,-6.79151 7.27484,-11.08113 7.77958,-25.32361 0.30972,-8.7395 0.63468,-12.77736 1.46334,-18.183 1.88708,-12.31008 5.50593,-20.73916 11.28455,-26.28411 3.45203,-3.31245 7.17797,-5.29204 11.72824,-6.23122 5.37835,-1.11008 10.03114,-0.26012 15.62402,2.85416 7.31504,4.07325 12.38495,10.64314 16.00707,20.74293 2.55933,7.13636 3.83991,13.68493 4.60751,23.56171 0.63548,8.17677 1.79262,12.52182 4.39729,16.51177 1.75953,2.69534 3.29808,4.29249 6.29645,6.53629 7.22191,5.40443 18.54174,16.09293 27.92228,26.36499 0.44921,0.4919 -1.02874,-0.56771 -3.28431,-2.35467 -8.45198,-6.69602 -18.04653,-13.70835 -26.06145,-19.04741 -6.51101,-4.33725 -9.28283,-7.35878 -11.24428,-12.25728 -1.57091,-3.92317 -2.09784,-6.93366 -3.04383,-17.39043 -0.68084,-7.52584 -1.27698,-11.48787 -2.39172,-15.89582 -3.48395,-13.77644 -11.11292,-22.75739 -21.46544,-25.26949 -11.37214,-2.77228 -20.37508,8.57533 -22.9185,17.10515 -4.93424,16.54784 -3.605,29.5464 -4.68518,39.42566 -0.93311,8.53422 -4.73492,16.91798 -17.85938,25.45017 -1.89177,1.23024 -4.68974,3.22885 -6.21771,4.44135 -2.69603,2.13941 -9.08359,8.30984 -10.82259,10.4547 -0.80316,0.99061 -0.77982,0.90595 0.36469,-1.32292 z m 110.20581,-2.67511 c -11.66592,-6.29941 -26.36319,-14.89384 -31.91065,-18.6602 -4.69689,-3.18888 -8.87916,-8.14485 -11.46323,-13.58386 -2.74461,-5.77693 -4.56914,-13.08649 -4.91665,-19.69753 l -0.14707,-2.79788 1.16469,3.57517 c 5.20123,15.96577 8.83988,22.40679 16.05904,28.42722 3.36662,2.8076 16.96479,12.27204 31.74304,22.09343 4.69292,3.11885 5.54098,3.7158 5.27843,3.71551 -0.0655,-7e-5 -2.6789,-1.38241 -5.8076,-3.07186 z m -1.47301,-26.89207 c -3.64319,-5.84148 -6.46518,-12.06841 -7.68129,-16.94942 -0.55452,-2.22557 -0.71041,-3.68832 -0.89357,-8.38444 -0.24816,-6.36271 -0.74009,-9.36934 -2.23583,-13.66514 -1.56323,-4.48964 -3.93611,-9.14519 -6.8571,-13.45351 l -1.07553,-1.58636 1.08266,0.85749 c 2.72574,2.15882 5.96649,6.32104 7.87989,10.12044 2.442,4.84901 3.45243,8.93241 3.8459,15.54217 0.29684,4.98666 0.60232,7.52481 1.34565,11.18074 0.96915,4.76664 3.21073,11.76485 5.12725,16.0073 1.60316,3.54877 1.50617,3.60839 -0.53803,0.33073 z m -20.1006,-60.35559 c -3.70432,-1.72496 -7.10312,-8.61568 -8.17402,-16.57202 -0.14165,-1.05238 -0.0672,-0.94485 0.64126,0.92604 2.56113,6.76349 5.69703,10.95116 8.84039,11.80547 1.46241,0.39745 4.65825,0.13531 6.77224,-0.55551 5.74343,-1.87686 15.73416,-8.48705 19.15363,-12.67266 5.10569,-6.24964 9.17964,-14.52823 10.80028,-21.947048 0.67302,-3.08087 0.8112,-9.78327 0.25459,-12.34899 -2.12858,-9.81177 -7.20988,-15.7178 -15.25955,-17.73629 -2.44453,-0.61297 -7.43455,-0.61429 -10.31874,-0.003 -7.22443,1.53188 -13.99582,5.55533 -17.74628,10.54455 -3.09242,4.11382 -3.97779,7.47158 -5.80023,21.997168 -1.018,8.11392 -1.64166,11.63557 -2.5561,14.43374 -1.34378,4.11188 -3.34961,6.82557 -6.01132,8.13272 -1.32828,0.6523 -1.77241,0.73007 -4.13399,0.72383 -1.45521,-0.004 -3.16931,-0.16197 -3.80912,-0.35138 l -1.16329,-0.34439 2.11336,-0.85211 c 5.30334,-2.13834 8.83905,-6.04389 10.69427,-11.81293 1.3574,-4.22099 2.03972,-9.06246 2.7398,-19.440528 0.44703,-6.62692 0.8509,-8.48066 2.65164,-12.17083 1.56675,-3.21066 3.55331,-5.72522 6.21997,-7.87316 8.19502,-6.60093 21.18571,-8.77704 31.0622,-5.20331 5.92246,2.143 10.72046,6.47624 13.26224,11.97759 1.07689,2.33081 2.49691,7.735429 2.43359,11.727312 -0.11588,7.305655 -0.28197,11.826526 -5.13224,21.310426 -4.39793,8.59942 -8.77294,13.67823 -15.9357,18.49924 -2.57142,1.73073 -6.08382,3.63696 -8.22735,4.46509 -0.50932,0.19677 -1.43582,0.70182 -2.05889,1.12232 -3.91146,2.63981 -8.48264,3.5362 -11.31264,2.21838 z m -0.37062,-46.030498 c -0.80637,-3.78206 3.08044,-9.13105 7.19212,-10.598494 5.70121,-2.03474 11.13379,-5.764442 11.13029,-9.238326 l 0.0204,-1.35257 0.48563,1.04841 c 0.62533,1.35003 0.50627,3.30247 -0.30336,4.97496 -2.93289,5.602213 -7.90506,5.575881 -11.87175,7.389488 -4.05083,2.334747 -4.62316,4.261291 -5.77516,7.045112 l -0.59741,1.46989 z m 26.83902,-9.38677 c -2.85848,-1.21839 -4.60488,-2.81184 -5.70778,-5.20787 -0.76081,-1.65288 -1.29347,-3.65107 -0.84635,-3.175 0.25646,0.27307 6.26997,6.84368 7.44611,8.13594 0.75885,0.83376 0.59269,0.87976 -0.89198,0.24693 z"
           style="fill:#00ff00;fill-opacity:1;stroke-width:0.264583" />
        <path
           sodipodi:nodetypes="cscsscscccsccsssassccsssscccsccccscccccsccsscsscscssccscsccccccsscscccc"
           style="fill:#0000ff;fill-opacity:1;stroke-width:0.264583"
           d="m -374.00903,286.4995 c -2.03729,-0.0433 -12.1576,-0.21291 -22.48958,-0.37693 -21.86891,-0.34716 -31.04584,-0.6444 -31.41909,-1.01766 -0.17819,-0.17818 0.0726,-0.35623 0.75991,-0.53959 1.64087,-0.43775 9.71696,-1.53618 17.16543,-2.33468 l 6.87917,-0.73747 18.65312,0.12647 c 31.15411,0.21124 46.58432,0.14549 51.32916,-0.21871 14.39699,-1.10505 24.17044,-3.44717 30.82266,-7.38637 1.28146,-0.75883 3.01069,-2.13921 4.38652,-3.5016 1.82652,-1.80867 2.48732,-2.68925 3.37526,-4.49792 5.78703,-11.78775 -2.23148,-26.47432 -16.26593,-29.79237 -3.84723,-0.90958 -11.08591,0.12864 -22.24169,3.19005 -2.94094,0.80706 -10.32281,2.96074 -16.40417,4.78595 -19.1973,5.76171 -34.06771,12.30579 -46.84894,10.17992 -13.34824,-2.22019 -27.01955,-13.91582 -38.4237,-16.70375 -4.44075,-1.08562 -9.17766,-1.17317 -13.70421,-0.53349 -7.17763,1.01432 -13.77008,2.91471 -20.64504,6.83431 -4.98253,2.84067 -7.87987,4.22473 -12.35338,5.90118 -3.7969,1.42289 -10.02592,3.11815 -14.00193,3.81072 -2.60091,0.45303 -3.26537,0.40429 -1.28422,-0.0942 4.4789,-1.12699 13.85493,-5.5973 21.63982,-10.31745 8.37034,-5.07511 13.6553,-7.81276 19.53438,-9.01059 7.75192,-1.57941 14.78778,-2.20705 21.74062,-0.4466 5.97036,1.51169 11.29764,3.54183 20.79252,9.05248 17.93927,10.41161 23.528,8.88891 46.01236,1.98796 15.57874,-4.74395 36.24362,-10.52114 45.97797,-12.56015 16.59198,-3.90615 35.27373,9.12405 32.49839,28.61231 -2.51532,17.07001 -15.44817,23.5333 -50.42812,25.20183 -5.65333,0.26966 -28.63187,0.52291 -35.05729,0.38636 z m 122.68435,-2.50535 c -6.8549,-0.45279 -13.50818,-1.79163 -18.44449,-3.7116 -2.6337,-1.02437 -10.04743,-5.14579 -12.51584,-6.95777 -1.67851,-1.23214 -3.29464,-2.99971 -4.05882,-4.43916 -1.22179,-2.77938 -0.4674,-5.98271 0.49174,-7.91761 2.0254,-4.07082 7.28392,-10.02757 10.4526,-11.84051 1.23741,-0.70797 4.39531,-1.77184 4.61306,-1.55409 0.0409,0.041 -0.66457,0.6375 -1.56782,1.32568 -4.60158,3.50586 -8.79746,8.68614 -9.95737,12.29347 -0.83222,2.58821 -0.706,5.51089 0.3131,7.24986 2.96835,5.06511 13.9684,9.96166 26.12593,11.6297 3.21385,0.44094 15.24336,0.46892 20.37563,0.0474 6.65779,-0.54682 10.44366,-1.63159 14.07541,-4.03305 5.60948,-3.70922 8.57745,-9.38531 8.86327,-16.95058 0.11528,-3.05066 0.0521,-3.91936 -0.43309,-5.95313 -1.95168,-8.18101 -8.25796,-14.52568 -17.14034,-17.24468 -2.08061,-0.6369 -2.7567,-0.71364 -6.42628,-0.72939 -4.89042,-0.021 -5.82216,0.15512 -14.68439,2.77547 -11.15269,3.29758 -15.45216,4.03329 -23.5479,4.02941 -5.53501,-0.003 -8.12361,-0.37067 -10.60828,-1.50819 -0.78665,-0.36014 -1.43026,-0.70058 -1.43026,-0.75652 0,-0.0559 0.80367,0.009 1.78593,0.14442 2.4461,0.33712 10.82191,0.0657 13.52124,-0.4381 3.67331,-0.68564 6.81596,-1.63871 12.62592,-3.82905 10.41022,-3.92463 14.95983,-5.16523 20.10907,-5.48339 6.0347,-0.37288 12.54832,1.55905 18.50054,5.48723 2.9201,1.92713 6.82085,5.91812 8.43484,8.62999 3.53618,5.9416 4.36967,13.00828 2.41953,20.51395 -2.97169,11.43745 -10.36105,17.77276 -22.09916,18.94685 -3.57399,0.35749 -15.93577,0.52824 -19.79377,0.2734 z m -139.21477,-14.87823 c 0.19669,-0.22528 17.87313,-7.79529 27.9075,-11.95151 9.70591,-4.02017 15.54284,-6.24631 18.38854,-7.01318 2.51114,-0.67671 6.82221,-1.33052 8.78659,-1.33254 1.75462,-0.002 5.50091,0.51457 5.50091,0.75824 0,0.0915 -1.8157,0.73867 -4.03489,1.43823 -3.74694,1.18115 -55.40818,17.81128 -56.2901,18.12018 -0.21829,0.0765 -0.33463,0.0677 -0.25855,-0.0194 z"
           id="path1507"
           inkscape:connector-curvature="0" />
      </g>
      <g
         id="g1531"
         transform="translate(72.378936,83.27778)"
         style="fill:#000000">
        <g
           id="g1519"
           transform="matrix(1.7900633,0,0,1.7900633,-10.680093,-35.869794)"
           style="fill:#ffffff">
          <text
             id="text1513"
             y="9.1618881"
             x="-140.97917"
             style="font-style:normal;font-variant:normal;font-weight:normal;font-stretch:normal;font-size:12.7px;line-height:1.25;font-family:'Proxima Nova';-inkscape-font-specification:'Proxima Nova';text-align:start;letter-spacing:0px;word-spacing:0px;text-anchor:start;fill:#ffffff;fill-opacity:1;stroke:none;stroke-width:0.264583"
             xml:space="preserve" />
          <text
             id="text1517"
             y="15.565302"
             x="-103.54967"
             style="font-style:normal;font-variant:normal;font-weight:bold;font-stretch:normal;font-size:4.93889px;line-height:1.25;font-family:sans-serif;-inkscape-font-specification:'sans-serif Bold';text-align:center;letter-spacing:0px;word-spacing:0px;text-anchor:middle;fill:#b3b3b3;fill-opacity:1;stroke:none;stroke-width:0.264583"
             xml:space="preserve" />
        </g>
        <g
           transform="matrix(1.7950262,0,0,1.7950262,-11.36214,-34.389418)"
           id="g1529"
           style="fill:#000000">
          <text
             id="text915"
             y="14.74134"
             x="-107.73722"
             style="font-style:normal;font-variant:normal;font-weight:bold;font-stretch:normal;font-size:4.93889px;line-height:1.25;font-family:sans-serif;-inkscape-font-specification:'sans-serif Bold';text-align:center;letter-spacing:0px;word-spacing:0px;text-anchor:middle;fill:#b3b3b3;fill-opacity:1;stroke:none;stroke-width:0.264583"
             xml:space="preserve" />
          <text
             xml:space="preserve"
             style="font-style:normal;font-variant:normal;font-weight:normal;font-stretch:normal;font-size:12.7px;line-height:1.25;font-family:'Proxima Nova';-inkscape-font-specification:'Proxima Nova';text-align:start;letter-spacing:0px;word-spacing:0px;text-anchor:start;fill:#000000;fill-opacity:1;stroke:none;stroke-width:0.264583"
             x="-140.97917"
             y="9.1618881"
             id="text1523"><tspan
               sodipodi:role="line"
               id="tspan1521"
               x="-140.97917"
               y="9.1618881"
               style="font-style:italic;font-variant:normal;font-weight:900;font-stretch:normal;font-size:22.5778px;font-family:'Proxima Nova';-inkscape-font-specification:'Proxima Nova Heavy Italic';text-align:start;text-anchor:start;fill:#000000;stroke-width:0.264583">A.M.IF.</tspan></text>
          <text
             xml:space="preserve"
             style="font-style:normal;font-variant:normal;font-weight:bold;font-stretch:normal;font-size:7.50735px;line-height:1.25;font-family:sans-serif;-inkscape-font-specification:'sans-serif Bold';text-align:center;letter-spacing:0px;word-spacing:0px;text-anchor:middle;fill:#000000;fill-opacity:1;stroke:none;stroke-width:0.402179"
             x="-108.04358"
             y="15.709073"
             id="text1527"><tspan
               sodipodi:role="line"
               id="tspan1525"
               x="-108.04358"
               y="15.709073"
               style="font-style:normal;font-variant:normal;font-weight:900;font-stretch:normal;font-size:7.50735px;font-family:'Proxima Nova';-inkscape-font-specification:'Proxima Nova Heavy';fill:#000000;stroke-width:0.402179">Мануальна терапія</tspan><tspan
               sodipodi:role="line"
               x="-108.04358"
               y="25.09326"
               style="font-style:normal;font-variant:normal;font-weight:900;font-stretch:normal;font-size:7.50735px;font-family:'Proxima Nova';-inkscape-font-specification:'Proxima Nova Heavy';fill:#000000;stroke-width:0.402179"
               id="tspan28" /></text>
        </g>
      </g>
      <g
         style="fill:#000000"
         transform="translate(-272.46298,86.86387)"
         id="g853">
        <g
           style="fill:#000000"
           id="g851"
           transform="matrix(1.7950262,0,0,1.7950262,-11.36214,-34.389418)" />
      </g>
    </g>
  </g>
</svg>
