<?xml version="1.0" encoding="UTF-8" standalone="no"?>
<!-- Created with Inkscape (http://www.inkscape.org/) -->

<svg
   width="221.79416mm"
   height="27.287092mm"
   viewBox="0 0 221.79416 27.287092"
   version="1.1"
   id="svg1007"
   inkscape:version="1.1.1 (3bf5ae0d25, 2021-09-20)"
   sodipodi:docname="logo_Dostavka_Massage.svg"
   xmlns:inkscape="http://www.inkscape.org/namespaces/inkscape"
   xmlns:sodipodi="http://sodipodi.sourceforge.net/DTD/sodipodi-0.dtd"
   xmlns="http://www.w3.org/2000/svg"
   xmlns:svg="http://www.w3.org/2000/svg">
  <sodipodi:namedview
     id="namedview1009"
     pagecolor="#505050"
     bordercolor="#eeeeee"
     borderopacity="1"
     inkscape:pageshadow="0"
     inkscape:pageopacity="0"
     inkscape:pagecheckerboard="0"
     inkscape:document-units="mm"
     showgrid="false"
     fit-margin-top="1"
     fit-margin-left="1"
     fit-margin-right="1"
     fit-margin-bottom="1"
     lock-margins="true"
     inkscape:zoom="1.2875732"
     inkscape:cx="436.09171"
     inkscape:cy="80.772107"
     inkscape:window-width="1364"
     inkscape:window-height="751"
     inkscape:window-x="0"
     inkscape:window-y="15"
     inkscape:window-maximized="1"
     inkscape:current-layer="layer1" />
  <defs
     id="defs1004" />
  <g
     inkscape:label="Слой 1"
     inkscape:groupmode="layer"
     id="layer1"
     transform="translate(244.86674,-134.56585)">
    <g
       aria-label="Доставка массажа"
       id="text21681"
       style="font-size:28.2222px;line-height:1.25;font-family:'1 Mi MinusmanC';-inkscape-font-specification:'1 Mi MinusmanC';text-align:center;letter-spacing:0px;word-spacing:0px;text-anchor:middle;fill:#f9f9f9;stroke-width:1.84412">
      <path
         d="m -222.13565,147.89895 q 0,1.04422 -0.11289,2.14489 -0.11289,1.10066 -0.45155,2.11666 -0.33867,1.016 -0.95956,1.89089 -0.59267,0.84667 -1.58044,1.41111 l -2.85044,1.63689 q -0.31045,0.16933 -0.73378,0.33866 -0.42333,0.16934 -0.90311,0.28223 -0.45156,0.11289 -0.90311,0.19755 -0.45156,0.0564 -0.81845,0.0564 -0.79022,0 -1.35466,-0.22578 -0.56445,-0.254 -1.21356,-0.67733 l -2.53999,1.46755 v -0.42333 q -0.81845,0.47977 -1.58045,0.90311 -0.762,0.45155 -1.72155,0.45155 -0.254,0 -0.62089,-0.0847 -0.33867,-0.0565 -0.67733,-0.22578 -0.31045,-0.16933 -0.53623,-0.42333 -0.19755,-0.22578 -0.19755,-0.56445 0,-0.33866 0.28222,-0.67733 0.28222,-0.33867 0.67733,-0.62089 0.42334,-0.31044 0.81845,-0.56444 0.42333,-0.254 0.67733,-0.39511 0.64911,-0.39512 1.38289,-0.508 0.762,-0.14112 1.49578,-0.0564 0.0282,-2.17311 0.14111,-4.318 0.11289,-2.14488 0.254,-4.31799 0.0564,-0.81845 0.0282,-1.58045 0,-0.79022 0.0564,-1.60866 0.0564,-0.79022 0.33867,-1.55222 0.31044,-0.79022 0.45155,-1.55222 0.90311,-0.59267 1.72156,-1.21356 0.81844,-0.64911 1.66511,-1.35466 -0.64911,-0.36689 -1.18533,-0.47978 -0.508,-0.14111 -1.24178,-0.14111 -0.508,0 -1.12889,0.0564 -0.59267,0.0565 -1.21355,0.19756 -0.59267,0.11289 -1.15711,0.31044 -0.56445,0.16934 -1.016,0.42334 -0.64911,0.36688 -1.38289,1.04422 -0.70556,0.64911 -1.32644,1.43933 -0.62089,0.79022 -1.07245,1.63689 -0.45155,0.84666 -0.56444,1.58044 l -0.67733,0.42333 q 0.0847,-0.62089 0.22577,-1.12888 0.11289,-0.508 0.31045,-0.95956 0.16933,-0.47978 0.47977,-0.90311 0.28223,-0.42333 0.70556,-0.90311 0.47978,-0.508 0.95955,-0.90311 0.47978,-0.39511 0.98778,-0.70556 0.508,-0.33866 1.04422,-0.64911 0.56445,-0.31044 1.18534,-0.67733 0.67733,-0.39511 1.49577,-0.73378 0.81845,-0.36689 1.66511,-0.62088 0.87489,-0.28223 1.72156,-0.42334 0.87488,-0.16933 1.69333,-0.16933 1.15711,0 2.37066,0.45155 l 0.11289,-0.0564 0.0565,0.0847 -0.0282,0.0282 q 1.46756,0.56444 2.48356,1.32644 1.04422,0.762 1.74977,1.74978 0.73378,0.98778 1.18534,2.20133 0.47977,1.21355 0.87488,2.68111 0.254,0.93133 0.33867,1.91911 0.11289,0.95955 0.11289,1.94733 z m -15.32466,-8.80533 q -0.19755,0.11289 -0.42333,0.16934 -0.22578,0.0564 -0.42333,0.19755 -0.73378,0.45156 -1.12889,1.04422 -0.39511,0.56445 -0.62089,1.24178 -0.19755,0.64911 -0.254,1.38289 -0.0282,0.73378 -0.0282,1.49578 0,0.62088 0.0564,1.29822 0.0565,0.64911 0.36689,1.21355 l -0.0282,-0.0847 q 0.254,0.45156 0.42333,0.79023 0.16934,0.31044 0.67734,0.53622 0.254,-0.59267 0.254,-1.21356 0,-0.16933 -0.0282,-0.36689 -0.0282,-0.19755 -0.11288,-0.33866 l 0.0564,0.11289 q -0.0847,-0.22578 -0.28222,-0.31045 l 0.67733,-0.39511 q 0.16933,0.0564 0.28222,0.254 0.14111,0.19756 0.22578,0.45156 0.0847,0.254 0.11289,0.508 0.0564,0.254 0.0564,0.42333 0,0.39511 -0.16933,0.64911 -0.16933,0.254 -0.42333,0.42333 -0.254,0.16934 -0.56445,0.31045 -0.31044,0.14111 -0.59266,0.31044 -0.31045,0.16933 -0.67734,0.16933 -0.59266,0 -1.15711,-0.45155 -0.56444,-0.47978 -0.98777,-1.15711 -0.45156,-0.67733 -0.70556,-1.41111 -0.28222,-0.73378 -0.28222,-1.27 0,-1.07244 0.70556,-2.11666 0.70555,-1.07245 1.72155,-1.94734 1.04422,-0.90311 2.20133,-1.55222 1.18533,-0.67733 2.11667,-0.98777 z m 11.59933,10.80911 q 0,-1.72156 -0.33867,-3.38667 -0.31044,-1.69333 -1.016,-3.21733 -0.67733,-1.524 -1.74977,-2.82222 -1.04422,-1.32644 -2.48356,-2.34244 -0.36688,0.31044 -0.762,0.56444 -0.39511,0.254 -0.79022,0.53623 v 0.11288 q 0,0.254 0.0847,0.508 0.11289,0.254 0.22578,0.53623 0.14111,0.254 0.22577,0.53622 0.11289,0.28222 0.11289,0.56444 0,0.79022 -0.0282,1.60867 0,0.79022 -0.0564,1.58044 -0.19756,2.90689 -0.31045,5.78555 -0.0847,2.85044 -0.0847,5.75733 0.73377,0.16933 1.46755,0.28222 0.762,0.0847 1.524,0.0847 0.62089,0 1.24178,-0.0564 0.62088,-0.0564 1.21355,-0.254 0.84667,-1.43933 1.18533,-3.07622 0.33867,-1.63688 0.33867,-3.30199 z m -10.69621,5.9831 q -0.47978,-0.11289 -1.12889,-0.11289 -0.33867,0 -0.84667,0.0847 -0.508,0.0847 -0.98778,0.28222 -0.47977,0.19756 -0.81844,0.508 -0.33867,0.31045 -0.33867,0.73378 0,0.33867 0.19756,0.53622 0.19755,0.19756 0.47978,0.31045 0.28222,0.11288 0.59266,0.14111 0.31045,0.0564 0.56445,0.0564 0.64911,0 1.18533,-0.11289 0.53622,-0.14111 1.10067,-0.47977 v -1.94734 z"
         id="path1085" />
      <path
         d="m -208.08104,148.83028 q -0.508,0.70556 -0.762,1.016 -0.22577,0.31045 -0.47977,0.53622 -0.254,0.19756 -0.67734,0.45156 -0.42333,0.22578 -1.32644,0.73378 -0.22578,0.14111 -0.508,0.254 -0.28222,0.0847 -0.53622,0.14111 -0.0564,0.73377 -0.19756,1.15711 -0.14111,0.42333 -0.45155,1.07244 -0.19756,0.42333 -0.36689,0.84667 -0.14111,0.39511 -0.33867,0.79022 -0.19755,0.36689 -0.47978,0.70555 -0.28222,0.31045 -0.70555,0.56445 l -2.42711,1.38289 q -0.33867,0.19755 -0.73378,0.31044 -0.36689,0.11289 -0.762,0.11289 -0.762,0 -1.29822,-0.47978 -0.53622,-0.45155 -0.84666,-1.12889 -0.31045,-0.70555 -0.45156,-1.46755 -0.14111,-0.79022 -0.14111,-1.41111 0,-1.07244 0.254,-2.14489 0.254,-1.07244 0.70556,-2.06022 0.19755,-0.45155 0.59266,-1.04422 0.42333,-0.59267 0.90311,-1.15711 0.47978,-0.56444 0.98778,-1.04422 0.508,-0.508 0.93133,-0.762 0.0847,-0.0565 0.28222,-0.16933 0.22578,-0.14112 0.42334,-0.28223 0.22577,-0.14111 0.39511,-0.28222 0.16933,-0.14111 0.19755,-0.22578 l 0.70556,-0.42333 q -0.0565,0.254 -0.0847,0.33867 -0.0282,0.0564 -0.254,0.19755 -0.59266,0.36689 -1.07244,1.15711 -0.47978,0.762 -0.84667,1.69333 -0.33866,0.90312 -0.53622,1.83445 -0.16933,0.93133 -0.16933,1.60866 0,1.016 0.16933,2.17311 0.19756,1.12889 0.73378,2.032 0.22577,0.36689 0.53622,0.79022 0.31044,0.42334 0.73378,0.56445 0.47977,-0.508 0.93133,-1.15711 0.47978,-0.67734 0.70555,-1.35467 l 0.19756,-0.11289 q 0.14111,-0.64911 0.22578,-1.32644 0.0847,-0.67733 0.14111,-1.35467 -0.73378,-0.254 -1.18533,-0.84666 -0.45156,-0.59267 -0.70556,-1.32645 -0.254,-0.73377 -0.33867,-1.524 -0.0847,-0.81844 -0.0847,-1.46755 0,-0.22578 0.0282,-0.508 0.0564,-0.28222 0.28222,-0.42333 l 1.63689,-0.93133 q 0.0564,-0.0282 0.14111,-0.0564 0.0847,-0.0282 0.14111,-0.0282 0.22578,0 0.42333,0.33866 0.19756,0.31045 0.28223,0.47978 0.62088,1.18533 0.79022,2.42711 0.16933,1.21356 0.11289,2.54 0.53622,0.254 1.15711,0.254 0.28222,0 0.42333,-0.0282 l 0.67733,-0.84667 1.91911,-1.12889 z"
         id="path1087" />
      <path
         d="m -199.33218,152.1605 q -0.254,0.73378 -0.36689,1.43934 -0.11289,0.67733 -0.31044,1.29822 -0.19756,0.59266 -0.59267,1.12888 -0.36689,0.53623 -1.12889,0.98778 l -2.59644,1.49578 q -0.67733,0.36689 -1.32644,0.36689 -0.95956,0 -1.60867,-0.53623 -0.62089,-0.50799 -1.016,-1.26999 -0.36689,-0.762 -0.53622,-1.66511 -0.16933,-0.90311 -0.16933,-1.66511 0,-0.28223 0,-0.53623 0,-0.28222 0.0564,-0.56444 0.11289,-0.84667 0.59267,-1.72155 0.508,-0.90311 1.21355,-1.69334 0.70556,-0.81844 1.49578,-1.49577 0.79022,-0.67734 1.49578,-1.10067 0.81844,-0.47978 1.63688,-0.87489 0.84667,-0.42333 1.66511,-0.90311 0.31045,0 0.62089,0.33867 0.31045,0.31044 0.31045,0.53622 0,0.28222 -0.254,0.53622 -0.0847,0.31045 -0.33867,0.56445 -0.254,0.254 -0.59267,0.45155 -0.31044,0.16934 -0.64911,0.33867 -0.33866,0.16933 -0.59266,0.31044 -0.33867,0.19756 -0.67734,0.19756 -0.22577,0 -0.47977,-0.0565 -0.254,-0.0564 -0.47978,-0.16933 -0.19756,-0.14111 -0.31044,-0.33867 -0.0847,-0.19755 0.0282,-0.508 -0.508,0.53623 -0.81845,1.29823 -0.31044,0.762 -0.47977,1.60866 -0.16934,0.81844 -0.22578,1.69333 -0.0282,0.84667 -0.0282,1.55222 0,0.64911 0.14111,1.35467 0.14111,0.70555 0.45155,1.29822 0.33867,0.59267 0.87489,0.98778 0.53622,0.39511 1.32644,0.39511 h 0.11289 q 0.93134,-0.95956 1.66511,-2.17311 0.73378,-1.21356 1.15711,-2.48355 l 0.73378,-0.42334 z"
         id="path1089" />
      <path
         d="m -179.91531,149.31006 q 0,-0.81844 0.19756,-1.58044 0.22577,-0.762 0.22577,-1.58045 0,-0.22577 -0.0282,-0.45155 -0.0282,-0.22578 -0.16933,-0.42333 l 0.0564,0.0847 q -0.0847,-0.16933 -0.14111,-0.28222 -0.0564,-0.14111 -0.19755,-0.28222 l 0.64911,-0.33867 q 0.36688,0.33867 0.62088,0.79022 0.28223,0.42334 0.42334,0.93134 0.16933,0.508 0.22577,1.04422 0.0847,0.508 0.0847,0.98777 z m 3.72533,1.46755 q -0.39511,0.81845 -0.67733,1.60867 -0.254,0.762 -0.70556,1.524 -0.16933,0.31044 -0.39511,0.70555 -0.19755,0.39512 -0.42333,0.79023 -0.22578,0.39511 -0.47978,0.762 -0.22578,0.36688 -0.47978,0.56444 -0.19755,0.16933 -0.53622,0.36689 -0.33866,0.19755 -0.73378,0.42333 -0.36688,0.19756 -0.73377,0.39511 -0.33867,0.16933 -0.59267,0.31045 -0.0564,0.0564 -0.22578,0.0564 -0.14111,-0.0282 -0.19755,-0.0282 l -0.0564,-0.11289 0.0564,0.0847 q -0.0564,-0.0565 -0.28222,-0.28223 -0.22578,-0.254 -0.254,-0.31044 -0.0565,-0.11289 -0.11289,-0.64911 -0.0282,-0.56444 -0.0847,-1.32644 -0.0564,-0.79023 -0.11289,-1.69334 -0.0564,-0.90311 -0.11289,-1.72155 -0.0282,-0.81844 -0.0564,-1.43933 -0.0282,-0.62089 -0.0282,-0.81845 0,-0.47977 0.0282,-0.93133 0.0282,-0.45155 0.0282,-0.93133 0,-0.254 -0.0282,-0.47978 0,-0.254 -0.0565,-0.508 -0.39511,0.39511 -0.93133,1.016 -0.508,0.62089 -1.04422,1.29822 -0.508,0.67733 -0.95955,1.35467 -0.45156,0.64911 -0.64911,1.15711 0.0564,0.87489 0.0564,1.74977 0,0.87489 0.14111,1.74978 0.0564,0.42333 0.14111,0.87489 0.11289,0.45155 0.11289,0.87489 l -3.13266,1.69333 q 0,-0.47978 -0.0847,-0.93133 -0.0847,-0.45156 -0.14111,-0.93134 -0.0565,-0.45155 -0.0565,-0.87488 0,-0.45156 0,-0.90312 0,-0.62088 -0.0564,-1.6651 -0.0564,-1.04423 -0.16933,-2.17311 -0.0847,-1.12889 -0.22578,-2.11667 -0.14111,-1.016 -0.33867,-1.524 -0.73377,1.04422 -1.60866,1.94733 -0.87489,0.90311 -1.63689,1.89089 v 0.254 q 0,1.21356 0.0564,2.45533 0.0564,1.24178 0.28223,2.42711 l -3.16089,1.94733 q -0.22578,-1.32644 -0.31044,-2.65288 -0.0564,-1.32645 -0.0564,-2.68111 0,-1.10067 0.0564,-2.06022 0.0847,-0.95956 0.45155,-2.00378 -0.28222,0.254 -0.64911,0.53622 -0.36689,0.28222 -0.73378,0.59267 -0.36689,0.28222 -0.64911,0.62089 -0.31044,0.31044 -0.45155,0.64911 l -0.73378,0.42333 q 0.31044,-0.73378 0.762,-1.18533 0.45155,-0.47978 0.87489,-1.10067 0.254,-0.36689 0.42333,-0.81844 0.19756,-0.45156 0.39511,-0.90311 0.19756,-0.45156 0.45156,-0.81845 0.254,-0.39511 0.67733,-0.64911 0.31044,-0.19755 0.56444,-0.42333 0.254,-0.22578 0.47978,-0.53622 l 1.55222,-1.016 q -0.14111,0.42333 -0.19755,0.87489 -0.0564,0.45155 -0.0564,0.90311 0,0.81844 0.0564,1.63689 0.0564,0.81844 0,1.66511 0.67733,-0.98778 1.27,-1.58045 0.59266,-0.59266 1.24177,-1.016 0.64911,-0.45155 1.43933,-0.84666 0.81845,-0.42334 1.91911,-1.04422 0.28223,0.39511 0.45156,0.93133 0.19755,0.508 0.28222,1.10066 0.11289,0.56445 0.14111,1.15711 0.0282,0.56445 0.0565,1.016 0.39511,-0.45155 0.81844,-0.84666 0.42333,-0.39511 0.81844,-0.81845 0.33867,-0.33866 0.53623,-0.79022 0.22577,-0.45155 0.64911,-0.67733 l 2.65288,-1.49578 q 0.11289,-0.0847 0.28223,-0.0847 0.33866,0 0.50799,0.42333 0.19756,0.39511 0.254,0.93133 0.0847,0.53622 0.0847,1.07245 0,0.508 0,0.70555 0,1.15711 0.14111,2.37067 0.16934,1.18533 0.31045,2.34244 0.0564,0.53622 0.0564,1.07244 0,0.53622 0,1.07245 0,0.31044 0.0282,0.64911 0.0282,0.33866 0.11289,0.64911 0.73378,-1.21356 1.43933,-2.39889 0.73378,-1.21356 1.46756,-2.42711 l 0.79022,-0.45156 z"
         id="path1091" />
      <path
         d="m -163.91333,151.85006 q -0.33866,1.18533 -0.67733,2.22955 -0.33867,1.016 -0.98778,2.08845 -0.19755,0.33866 -0.31044,0.64911 -0.0847,0.28222 -0.45156,0.508 l -2.42711,1.49577 q -0.19755,0.11289 -0.45155,0.11289 -0.53622,0 -0.84667,-0.47978 -0.28222,-0.47977 -0.42333,-1.10066 -0.11289,-0.64911 -0.16933,-1.29822 -0.0282,-0.67734 -0.0564,-1.04422 -0.508,0.90311 -1.04422,1.52399 -0.53622,0.59267 -1.15711,1.07245 -0.59267,0.47977 -1.32644,0.90311 -0.70556,0.42333 -1.58045,0.95955 -0.14111,0.0847 -0.31044,0.14111 -0.16933,0.0847 -0.33867,0.0847 -0.42333,0 -0.70555,-0.45155 -0.254,-0.42334 -0.254,-0.79023 0,-0.36689 0.11289,-0.73377 0.14111,-0.36689 0.28222,-0.70556 0.59266,-1.55222 1.80622,-2.54 1.21355,-0.98777 2.56822,-1.80622 0.47978,-0.28222 0.93133,-0.59266 0.47978,-0.31045 0.95956,-0.53623 v -0.16933 q -0.508,0.0564 -1.04422,0.16933 -0.508,0.11289 -0.98778,0.31045 -0.64911,0.62089 -1.29822,1.18533 -0.62089,0.56445 -1.41111,1.04422 l -0.0564,-0.11289 q 0.33867,-0.22577 0.56445,-0.59266 0.22577,-0.39511 0.53622,-0.67734 0.28222,-0.254 0.73378,-0.56444 0.47977,-0.33867 0.98777,-0.62089 0.508,-0.31044 1.016,-0.508 0.53622,-0.22578 0.95956,-0.28222 0.0282,-0.31044 0.0564,-0.62089 0.0282,-0.33866 0.0282,-0.64911 0,-0.45155 -0.14111,-0.98778 -0.14111,-0.53622 -0.42333,-0.98777 -0.254,-0.47978 -0.64911,-0.79022 -0.39511,-0.31045 -0.93133,-0.31045 -0.14111,0 -0.42334,0.0564 -0.22577,0.508 -0.39511,1.04422 -0.16933,0.53622 -0.70555,0.84666 -0.254,0.14111 -0.59267,0.36689 -0.33867,0.19756 -0.70555,0.42334 -0.36689,0.19755 -0.70556,0.36688 -0.33867,0.16934 -0.62089,0.19756 -0.0564,-0.22578 -0.0564,-0.33867 0,-0.62089 0.39511,-0.95955 0.42333,-0.36689 0.84667,-0.67733 0.47977,-0.36689 1.10066,-0.79023 0.64911,-0.42333 1.32644,-0.762 0.70556,-0.36688 1.41111,-0.59266 0.73378,-0.22578 1.38289,-0.22578 0.762,0 1.29822,0.47978 0.53623,0.45155 0.87489,1.15711 0.33867,0.67733 0.508,1.46755 0.16933,0.762 0.19756,1.38289 0.0282,0.45156 0,0.87489 0,0.39511 0.0282,0.84666 0.0564,1.27 0.254,2.48356 0.22578,1.18533 0.16933,2.42711 0.73378,-0.98778 1.46756,-1.94733 0.762,-0.98778 1.12888,-2.20134 l 0.73378,-0.45155 z m -6.88622,0.0564 q -0.64911,0.14111 -1.26999,0.53622 -0.59267,0.39512 -1.12889,0.93134 -0.508,0.53622 -0.93134,1.15711 -0.39511,0.62089 -0.62088,1.21355 -0.14111,0.33867 -0.28223,0.70556 -0.11288,0.33866 -0.11288,0.70555 0,0.28222 0.16933,0.67734 0.19755,0.36688 0.508,0.45155 1.38289,-1.29822 2.20133,-2.96333 0.81844,-1.66511 1.46755,-3.41489 z"
         id="path1093" />
      <path
         d="m -154.60003,136.89229 q 0,0.67734 -0.33867,1.55222 -0.31044,0.84667 -0.81844,1.69334 -0.47978,0.81844 -1.10067,1.52399 -0.59267,0.67734 -1.18533,1.016 -0.39511,0.22578 -0.762,0.39511 -0.33867,0.16934 -0.79022,0.31045 0.0282,-0.0282 0.19755,-0.14111 0.19756,-0.11289 0.39511,-0.22578 0.19756,-0.11289 0.36689,-0.19756 0.16933,-0.0847 0.19756,-0.0847 0.31044,-0.254 0.53622,-0.56445 0.22578,-0.31044 0.47978,-0.62088 0.33866,-0.39512 0.73377,-0.93134 0.39511,-0.56444 0.70556,-1.15711 0.31044,-0.62089 0.508,-1.24177 0.22578,-0.62089 0.22578,-1.15711 0,-0.14112 -0.0282,-0.28223 -0.0282,-0.16933 -0.0847,-0.31044 l 0.62089,-0.36689 q 0.14111,0.42333 0.14111,0.79022 z m 0.36688,11.74044 q -0.50799,0.11289 -0.95955,0.28222 -0.42333,0.14111 -0.90311,0.28222 0.39511,0.73378 0.53622,1.524 0.14111,0.79022 0.14111,1.63689 0,0.56444 -0.0847,1.29822 -0.0564,0.70555 -0.254,1.41111 -0.19756,0.70555 -0.56445,1.29822 -0.33866,0.59267 -0.87489,0.87489 l -2.65288,1.41111 q -0.33867,0.16933 -0.79022,0.16933 -0.62089,0 -1.15712,-0.28222 -0.53622,-0.254 -0.98777,-0.67733 -0.42334,-0.42334 -0.73378,-0.95956 -0.31044,-0.56444 -0.47978,-1.12889 -0.19755,-0.67733 -0.254,-1.41111 -0.0282,-0.76199 -0.0282,-1.46755 0,-1.60867 0.16933,-3.21733 0.19756,-1.63689 0.508,-3.24555 -0.70555,0.53622 -1.46755,1.016 -0.762,0.47977 -1.58044,0.84666 l -0.0564,-0.11289 q 0.98778,-0.508 1.74978,-1.15711 0.73378,-0.67733 1.524,-1.43933 0.254,-0.93133 0.762,-2.20133 0.53622,-1.27 1.24177,-2.51178 0.70556,-1.24177 1.55222,-2.286 0.84667,-1.04422 1.74978,-1.52399 0.28222,-0.14112 0.73378,-0.39512 0.47978,-0.28222 0.79022,-0.28222 0.28222,0 0.56444,0.14111 -0.22577,1.29823 -0.64911,2.31422 -0.39511,0.98778 -0.98777,1.83445 -0.59267,0.84666 -1.35467,1.60866 -0.762,0.762 -1.69333,1.60867 -0.28222,1.29822 -0.42333,2.54 -0.14112,1.24177 -0.14112,2.56822 0,0.81844 0.0565,2.06022 0.0847,1.24177 0.33867,2.48355 0.254,1.24178 0.79022,2.25778 0.53622,0.98777 1.46755,1.29822 0.56445,-1.04422 0.84667,-2.31422 0.31044,-1.29822 0.31044,-2.48356 0,-0.73377 -0.14111,-1.27 -0.11289,-0.56444 -0.508,-1.21355 -0.14111,0.0564 -0.42333,0.14111 -0.254,0.0565 -0.53622,0.14111 -0.254,0.0565 -0.508,0.11289 -0.254,0.0565 -0.39511,0.0565 -0.33867,0 -0.62089,-0.33867 -0.254,-0.36689 -0.254,-0.67733 0,-0.31045 0.16933,-0.53623 0.16933,-0.254 0.42333,-0.39511 0.19756,-0.11289 0.47978,-0.28222 0.31045,-0.16933 0.62089,-0.33866 0.31044,-0.16934 0.59267,-0.28223 0.28222,-0.14111 0.508,-0.14111 0.22577,0 0.45155,0.14111 0.254,0.14111 0.45156,0.36689 0.22577,0.19756 0.39511,0.42333 0.19755,0.22578 0.31044,0.39512 0.73378,-0.56445 1.55222,-0.67734 0.84667,-0.11289 1.72156,-0.28222 z m -2.56822,-11.42999 q -0.0847,-0.0282 -0.28222,-0.0282 -0.19755,0 -0.47978,0.0565 -0.59266,0.508 -1.07244,1.15711 -0.45155,0.64911 -0.81844,1.38289 -0.33867,0.73377 -0.59267,1.524 -0.254,0.762 -0.42333,1.49577 0.67733,-0.64911 1.21355,-1.27 0.53622,-0.62089 0.98778,-1.27 0.45156,-0.67733 0.79022,-1.41111 0.36689,-0.73377 0.67733,-1.63688 z"
         id="path1095" />
      <path
         d="m -139.9245,152.44272 q -0.16933,0.39512 -0.53622,1.24178 -0.36689,0.84667 -0.79022,1.72156 -0.42334,0.87488 -0.87489,1.60866 -0.42333,0.73378 -0.73378,0.90311 l -1.35466,0.762 q -0.16934,0.11289 -0.39511,0.11289 h -0.14112 q -0.16933,0 -0.28222,-0.11289 -0.0847,-0.0847 -0.33866,-0.45155 -0.254,-0.36689 -0.56445,-0.762 -0.28222,-0.42334 -0.53622,-0.762 -0.22578,-0.36689 -0.22578,-0.42334 -0.19755,-1.04422 -0.28222,-2.11666 -0.0847,-1.07244 -0.0847,-2.14489 0,-0.53622 -0.28222,-0.70555 -0.28222,-0.16934 -0.762,-0.16934 -0.56444,0 -1.15711,0.14111 -0.59266,0.14112 -1.10066,0.33867 0.0847,1.27 0.254,2.48355 0.19755,1.18534 0.19755,2.45534 l -3.10444,1.80622 q 0,-0.79022 -0.14111,-1.55222 -0.11289,-0.79023 -0.28222,-1.55223 -0.16934,-0.79022 -0.31045,-1.55222 -0.11289,-0.79022 -0.11289,-1.58044 0,-1.55222 0.0847,-3.07622 -0.59267,0.70556 -1.04422,1.524 -0.47978,0.79022 -1.016,1.55222 l -0.28222,-0.70555 q 1.27,-1.80623 2.62466,-3.58422 1.35467,-1.778 3.07622,-3.21733 -0.0282,0.42333 -0.0564,0.84666 0,0.42333 0,0.84667 0,2.34244 0.0847,4.62844 l 1.35467,-0.508 q 0.0282,-0.56445 0.0282,-1.27 0,-0.73378 0.11289,-1.43933 0.14111,-0.70556 0.42333,-1.29822 0.28223,-0.59267 0.84667,-0.93134 0.19756,-0.11289 0.64911,-0.39511 0.47978,-0.28222 0.95956,-0.56444 0.508,-0.31045 0.95955,-0.508 0.45156,-0.22578 0.64911,-0.22578 0.45156,0 0.762,0.28222 0.31044,0.254 0.508,0.64911 0.14111,0.28223 0.33867,0.508 0.22577,0.22578 0.31044,0.53623 l -2.68111,1.52399 q -0.0847,-0.254 -0.11289,-0.762 -0.0282,-0.50799 -0.16933,-0.67733 l 0.0564,0.0847 q -0.22577,-0.39511 -0.762,-0.47978 -0.70555,0.98778 -1.29822,2.25778 -0.56444,1.24177 -0.84666,2.42711 0.73377,-0.254 1.55222,-0.53623 0.84666,-0.31044 1.60866,-0.31044 0.254,0 0.53623,0.0847 0.28222,0.0564 0.42333,0.31044 0.19755,0.33867 0.19755,0.67733 0.0282,0.31045 0.0564,0.67734 0.0282,0.42333 0.14111,0.90311 0.14111,0.45155 0.28222,0.90311 0.14111,0.42333 0.254,0.84666 0.11289,0.39511 0.11289,0.70556 0,0.73378 -0.22578,1.49578 -0.19755,0.73377 -0.19755,1.49577 0,0.16934 0.0282,0.254 0.0847,-0.19755 0.16933,-0.36689 0.0847,-0.19755 0.16934,-0.36689 0.33866,-0.64911 0.73377,-1.24177 0.42334,-0.59267 0.79022,-1.18533 0.39512,-0.59267 0.70556,-1.21356 0.33867,-0.64911 0.47978,-1.41111 l 0.56444,0.56444 z m -7.64822,3.58422 q -0.22577,-0.79022 -0.45155,-1.60866 -0.19756,-0.81844 -0.19756,-1.63689 0,-0.14111 0,-0.22578 0,-0.11289 0.0282,-0.254 l 0.70555,-0.42333 q -0.0282,0.14111 -0.0564,0.31045 0,0.16933 0,0.31044 0,0.81844 0.19755,1.60866 0.19756,0.79023 0.42334,1.55223 z"
         id="path1097" />
      <path
         d="m -127.22455,151.85006 q -0.33866,1.18533 -0.67733,2.22955 -0.33867,1.016 -0.98778,2.08845 -0.19755,0.33866 -0.31044,0.64911 -0.0847,0.28222 -0.45156,0.508 l -2.42711,1.49577 q -0.19755,0.11289 -0.45155,0.11289 -0.53622,0 -0.84667,-0.47978 -0.28222,-0.47977 -0.42333,-1.10066 -0.11289,-0.64911 -0.16933,-1.29822 -0.0282,-0.67734 -0.0565,-1.04422 -0.508,0.90311 -1.04422,1.52399 -0.53622,0.59267 -1.15711,1.07245 -0.59266,0.47977 -1.32644,0.90311 -0.70556,0.42333 -1.58045,0.95955 -0.14111,0.0847 -0.31044,0.14111 -0.16933,0.0847 -0.33867,0.0847 -0.42333,0 -0.70555,-0.45155 -0.254,-0.42334 -0.254,-0.79023 0,-0.36689 0.11289,-0.73377 0.14111,-0.36689 0.28222,-0.70556 0.59267,-1.55222 1.80622,-2.54 1.21356,-0.98777 2.56822,-1.80622 0.47978,-0.28222 0.93133,-0.59266 0.47978,-0.31045 0.95956,-0.53623 v -0.16933 q -0.508,0.0564 -1.04422,0.16933 -0.508,0.11289 -0.98778,0.31045 -0.64911,0.62089 -1.29822,1.18533 -0.62089,0.56445 -1.41111,1.04422 l -0.0565,-0.11289 q 0.33867,-0.22577 0.56445,-0.59266 0.22578,-0.39511 0.53622,-0.67734 0.28222,-0.254 0.73378,-0.56444 0.47977,-0.33867 0.98777,-0.62089 0.508,-0.31044 1.016,-0.508 0.53623,-0.22578 0.95956,-0.28222 0.0282,-0.31044 0.0564,-0.62089 0.0282,-0.33866 0.0282,-0.64911 0,-0.45155 -0.14112,-0.98778 -0.14111,-0.53622 -0.42333,-0.98777 -0.254,-0.47978 -0.64911,-0.79022 -0.39511,-0.31045 -0.93133,-0.31045 -0.14111,0 -0.42334,0.0564 -0.22577,0.508 -0.39511,1.04422 -0.16933,0.53622 -0.70555,0.84666 -0.254,0.14111 -0.59267,0.36689 -0.33866,0.19756 -0.70555,0.42334 -0.36689,0.19755 -0.70556,0.36688 -0.33866,0.16934 -0.62089,0.19756 -0.0564,-0.22578 -0.0564,-0.33867 0,-0.62089 0.39511,-0.95955 0.42333,-0.36689 0.84667,-0.67733 0.47977,-0.36689 1.10066,-0.79023 0.64911,-0.42333 1.32645,-0.762 0.70555,-0.36688 1.41111,-0.59266 0.73377,-0.22578 1.38288,-0.22578 0.762,0 1.29823,0.47978 0.53622,0.45155 0.87488,1.15711 0.33867,0.67733 0.508,1.46755 0.16934,0.762 0.19756,1.38289 0.0282,0.45156 0,0.87489 0,0.39511 0.0282,0.84666 0.0564,1.27 0.254,2.48356 0.22578,1.18533 0.16933,2.42711 0.73378,-0.98778 1.46756,-1.94733 0.762,-0.98778 1.12889,-2.20134 l 0.73377,-0.45155 z m -6.88621,0.0564 q -0.64911,0.14111 -1.27,0.53622 -0.59267,0.39512 -1.12889,0.93134 -0.508,0.53622 -0.93133,1.15711 -0.39511,0.62089 -0.62089,1.21355 -0.14111,0.33867 -0.28222,0.70556 -0.11289,0.33866 -0.11289,0.70555 0,0.28222 0.16933,0.67734 0.19756,0.36688 0.508,0.45155 1.38289,-1.29822 2.20133,-2.96333 0.81845,-1.66511 1.46756,-3.41489 z"
         id="path1099" />
      <path
         d="m -102.75595,152.49917 q -0.28223,1.41111 -0.95956,2.62466 -0.67733,1.18534 -1.89089,2.00378 -0.64911,0.42333 -1.32644,0.762 -0.64911,0.31044 -1.29822,0.70555 -0.0282,0 -0.11289,-0.0847 -0.0847,-0.11289 -0.22578,-0.254 -0.11289,-0.16934 -0.254,-0.33867 -0.14111,-0.16933 -0.254,-0.31044 -0.0847,-0.16934 -0.0847,-0.28222 0,-0.84667 -0.0847,-1.66511 -0.0564,-0.84667 -0.0564,-1.69334 0,-0.84666 0.11288,-1.69333 0.14112,-0.84666 0.28223,-1.69333 -0.254,0.39511 -0.62089,1.10067 -0.36689,0.67733 -0.79022,1.52399 -0.42334,0.81845 -0.87489,1.69334 -0.45156,0.84666 -0.87489,1.60866 -0.42333,0.73378 -0.81844,1.27 -0.36689,0.53622 -0.64911,0.70556 -0.31045,0.16933 -0.59267,0.33866 -0.28222,0.19756 -0.59267,0.36689 v -0.33867 q 0,-0.81844 -0.19755,-1.58044 -0.16934,-0.79022 -0.39511,-1.55222 -0.22578,-0.79022 -0.45156,-1.55222 -0.19755,-0.762 -0.254,-1.58044 -1.58044,3.38666 -4.23333,6.06777 -0.11289,0.11289 -0.16933,0.28222 -0.0564,0.16933 -0.14111,0.22578 l -2.65289,1.524 q -0.31044,0.16933 -0.59267,0.16933 -0.47977,0 -0.93133,-0.33867 -0.45155,-0.31044 -0.67733,-0.73377 l 3.38666,-1.94733 q 0.14111,0.28222 0.28223,0.56444 0.11288,0.31044 0.33866,0.56444 0.98778,-1.07244 1.60867,-2.37066 0.59266,-1.32645 1.21355,-2.62467 0.53622,-1.12888 1.18533,-2.17311 0.64911,-1.04422 1.12889,-2.20133 0.62089,-1.38289 1.12889,-2.82222 l 1.91911,-1.10066 q 0.0564,0.31044 0.0847,0.33866 0.0282,0 0.28222,0.22578 0.53622,-0.87489 1.27,-1.49578 0.73377,-0.62088 1.66511,-1.04422 l 0.0564,0.0847 q -0.59266,0.33867 -0.98778,0.67733 -0.39511,0.33867 -0.70555,0.762 -0.28222,0.39511 -0.508,0.90311 -0.19756,0.508 -0.36689,1.18533 -0.0282,0.0565 -0.11289,0.33867 -0.0564,0.28222 -0.0564,0.33867 0,0.73377 0.0847,1.46755 0.0847,0.70556 0.0847,1.43933 0,1.60867 -0.36689,3.16089 -0.33866,1.55222 -0.59266,3.13266 0.62088,-1.10066 1.15711,-2.25777 0.53622,-1.18533 1.07244,-2.34244 0.56444,-1.15711 1.18533,-2.25778 0.64911,-1.10067 1.49578,-2.08844 l 0.0847,-0.33867 q 0.45155,-0.254 0.84666,-0.59267 0.42333,-0.33866 0.84667,-0.67733 0.42333,-0.36689 0.84666,-0.73378 0.45156,-0.36688 0.98778,-0.67733 l 0.0564,0.0847 q -0.45156,0.28222 -0.84667,0.64911 -0.39511,0.36689 -0.73378,0.762 l 0.87489,-0.47978 q -0.14111,0.79022 -0.16933,1.58044 0,0.79023 0,1.60867 0,1.58044 -0.22578,3.13266 -0.19756,1.524 -0.19756,3.13267 0,0.14111 -0.11288,0.36689 -0.0847,0.22577 -0.19756,0.47977 -0.11289,0.254 -0.22578,0.508 -0.0847,0.22578 -0.0847,0.42334 l 0.0282,0.11289 q 0.508,-0.39512 1.04422,-0.93134 0.53622,-0.53622 0.95955,-1.12889 0.45156,-0.62088 0.762,-1.26999 0.33867,-0.67734 0.47978,-1.32645 l 0.70556,-0.42333 z"
         id="path1101" />
      <path
         d="m -90.140646,151.85006 q -0.338667,1.18533 -0.677333,2.22955 -0.338667,1.016 -0.987777,2.08845 -0.197556,0.33866 -0.310444,0.64911 -0.08467,0.28222 -0.451556,0.508 l -2.427109,1.49577 q -0.197555,0.11289 -0.451555,0.11289 -0.536222,0 -0.846666,-0.47978 -0.282222,-0.47977 -0.423333,-1.10066 -0.112889,-0.64911 -0.169333,-1.29822 -0.02822,-0.67734 -0.05644,-1.04422 -0.507999,0.90311 -1.044221,1.52399 -0.536222,0.59267 -1.15711,1.07245 -0.592667,0.47977 -1.326442,0.90311 -0.70556,0.42333 -1.58044,0.95955 -0.14112,0.0847 -0.31045,0.14111 -0.16933,0.0847 -0.33867,0.0847 -0.42333,0 -0.70555,-0.45155 -0.254,-0.42334 -0.254,-0.79023 0,-0.36689 0.11289,-0.73377 0.14111,-0.36689 0.28222,-0.70556 0.59267,-1.55222 1.80622,-2.54 1.21356,-0.98777 2.568221,-1.80622 0.479778,-0.28222 0.931333,-0.59266 0.479778,-0.31045 0.959555,-0.53623 v -0.16933 q -0.508,0.0564 -1.044222,0.16933 -0.507999,0.11289 -0.987777,0.31045 -0.64911,0.62089 -1.29822,1.18533 -0.62089,0.56445 -1.41111,1.04422 l -0.0564,-0.11289 q 0.33867,-0.22577 0.56445,-0.59266 0.22578,-0.39511 0.53622,-0.67734 0.28222,-0.254 0.733778,-0.56444 0.479777,-0.33867 0.987777,-0.62089 0.507999,-0.31044 1.015999,-0.508 0.536222,-0.22578 0.959555,-0.28222 0.02822,-0.31044 0.05644,-0.62089 0.02822,-0.33866 0.02822,-0.64911 0,-0.45155 -0.141111,-0.98778 -0.141111,-0.53622 -0.423333,-0.98777 -0.254,-0.47978 -0.649111,-0.79022 -0.395111,-0.31045 -0.931333,-0.31045 -0.141111,0 -0.423333,0.0564 -0.225777,0.508 -0.395111,1.04422 -0.169334,0.53622 -0.705554,0.84666 -0.254,0.14111 -0.59267,0.36689 -0.33866,0.19756 -0.70555,0.42334 -0.36689,0.19755 -0.70556,0.36688 -0.33866,0.16934 -0.62089,0.19756 -0.0564,-0.22578 -0.0564,-0.33867 0,-0.62089 0.39511,-0.95955 0.42333,-0.36689 0.84667,-0.67733 0.47977,-0.36689 1.10066,-0.79023 0.64911,-0.42333 1.326446,-0.762 0.705555,-0.36688 1.41111,-0.59266 0.733778,-0.22578 1.382888,-0.22578 0.762,0 1.298222,0.47978 0.536221,0.45155 0.874888,1.15711 0.338666,0.67733 0.507999,1.46755 0.169334,0.762 0.197556,1.38289 0.02822,0.45156 0,0.87489 0,0.39511 0.02822,0.84666 0.05644,1.27 0.254,2.48356 0.225777,1.18533 0.169333,2.42711 0.733777,-0.98778 1.467554,-1.94733 0.762,-0.98778 1.128888,-2.20134 l 0.733778,-0.45155 z m -6.886217,0.0564 q -0.649111,0.14111 -1.269999,0.53622 -0.592667,0.39512 -1.128888,0.93134 -0.508,0.53622 -0.93133,1.15711 -0.39511,0.62089 -0.62089,1.21355 -0.14111,0.33867 -0.28222,0.70556 -0.11289,0.33866 -0.11289,0.70555 0,0.28222 0.16933,0.67734 0.19756,0.36688 0.508,0.45155 1.382888,-1.29822 2.201332,-2.96333 0.818444,-1.66511 1.467555,-3.41489 z"
         id="path1103" />
      <path
         d="m -81.47647,152.1605 q -0.254,0.73378 -0.366889,1.43934 -0.112888,0.67733 -0.310444,1.29822 -0.197555,0.59266 -0.592666,1.12888 -0.366889,0.53623 -1.128888,0.98778 l -2.596442,1.49578 q -0.677333,0.36689 -1.326444,0.36689 -0.959555,0 -1.608665,-0.53623 -0.620889,-0.50799 -1.016,-1.26999 -0.366888,-0.762 -0.536221,-1.66511 -0.169334,-0.90311 -0.169334,-1.66511 0,-0.28223 0,-0.53623 0,-0.28222 0.05644,-0.56444 0.112889,-0.84667 0.592666,-1.72155 0.508,-0.90311 1.213555,-1.69334 0.705555,-0.81844 1.495776,-1.49577 0.790222,-0.67734 1.495777,-1.10067 0.818444,-0.47978 1.636888,-0.87489 0.846666,-0.42333 1.665109,-0.90311 0.310445,0 0.620889,0.33867 0.310444,0.31044 0.310444,0.53622 0,0.28222 -0.254,0.53622 -0.08467,0.31045 -0.338666,0.56445 -0.254,0.254 -0.592666,0.45155 -0.310445,0.16934 -0.649111,0.33867 -0.338666,0.16933 -0.592666,0.31044 -0.338667,0.19756 -0.677333,0.19756 -0.225778,0 -0.479777,-0.0565 -0.254,-0.0564 -0.479778,-0.16933 -0.197555,-0.14111 -0.310444,-0.33867 -0.08467,-0.19755 0.02822,-0.508 -0.507999,0.53623 -0.818444,1.29823 -0.310444,0.762 -0.479777,1.60866 -0.169333,0.81844 -0.225778,1.69333 -0.02822,0.84667 -0.02822,1.55222 0,0.64911 0.141111,1.35467 0.141111,0.70555 0.451555,1.29822 0.338667,0.59267 0.874889,0.98778 0.536221,0.39511 1.326443,0.39511 h 0.112889 q 0.931332,-0.95956 1.66511,-2.17311 0.733777,-1.21356 1.15711,-2.48355 l 0.733777,-0.42334 z"
         id="path1105" />
      <path
         d="m -70.977813,152.1605 q -0.254,0.73378 -0.366888,1.43934 -0.112889,0.67733 -0.310445,1.29822 -0.197555,0.59266 -0.592666,1.12888 -0.366888,0.53623 -1.128888,0.98778 l -2.596442,1.49578 q -0.677333,0.36689 -1.326444,0.36689 -0.959554,0 -1.608665,-0.53623 -0.620889,-0.50799 -1.015999,-1.26999 -0.366889,-0.762 -0.536222,-1.66511 -0.169333,-0.90311 -0.169333,-1.66511 0,-0.28223 0,-0.53623 0,-0.28222 0.05644,-0.56444 0.112889,-0.84667 0.592666,-1.72155 0.508,-0.90311 1.213555,-1.69334 0.705555,-0.81844 1.495777,-1.49577 0.790221,-0.67734 1.495776,-1.10067 0.818444,-0.47978 1.636888,-0.87489 0.846666,-0.42333 1.66511,-0.90311 0.310444,0 0.620888,0.33867 0.310444,0.31044 0.310444,0.53622 0,0.28222 -0.254,0.53622 -0.08467,0.31045 -0.338666,0.56445 -0.254,0.254 -0.592666,0.45155 -0.310444,0.16934 -0.649111,0.33867 -0.338666,0.16933 -0.592666,0.31044 -0.338666,0.19756 -0.677333,0.19756 -0.225777,0 -0.479777,-0.0565 -0.254,-0.0564 -0.479778,-0.16933 -0.197555,-0.14111 -0.310444,-0.33867 -0.08467,-0.19755 0.02822,-0.508 -0.507999,0.53623 -0.818443,1.29823 -0.310445,0.762 -0.479778,1.60866 -0.169333,0.81844 -0.225777,1.69333 -0.02822,0.84667 -0.02822,1.55222 0,0.64911 0.141111,1.35467 0.141111,0.70555 0.451556,1.29822 0.338666,0.59267 0.874888,0.98778 0.536222,0.39511 1.326443,0.39511 h 0.112889 q 0.931333,-0.95956 1.66511,-2.17311 0.733777,-1.21356 1.15711,-2.48355 l 0.733777,-0.42334 z"
         id="path1107" />
      <path
         d="m -56.640952,151.85006 q -0.338666,1.18533 -0.677332,2.22955 -0.338667,1.016 -0.987777,2.08845 -0.197556,0.33866 -0.310445,0.64911 -0.08467,0.28222 -0.451555,0.508 l -2.427109,1.49577 q -0.197555,0.11289 -0.451555,0.11289 -0.536222,0 -0.846666,-0.47978 -0.282222,-0.47977 -0.423333,-1.10066 -0.112889,-0.64911 -0.169333,-1.29822 -0.02822,-0.67734 -0.05644,-1.04422 -0.507999,0.90311 -1.044221,1.52399 -0.536222,0.59267 -1.15711,1.07245 -0.592667,0.47977 -1.326444,0.90311 -0.705555,0.42333 -1.580443,0.95955 -0.141111,0.0847 -0.310444,0.14111 -0.169334,0.0847 -0.338667,0.0847 -0.423333,0 -0.705555,-0.45155 -0.254,-0.42334 -0.254,-0.79023 0,-0.36689 0.112889,-0.73377 0.141111,-0.36689 0.282222,-0.70556 0.592666,-1.55222 1.806221,-2.54 1.213555,-0.98777 2.56822,-1.80622 0.479778,-0.28222 0.931333,-0.59266 0.479777,-0.31045 0.959555,-0.53623 v -0.16933 q -0.508,0.0564 -1.044222,0.16933 -0.507999,0.11289 -0.987777,0.31045 -0.64911,0.62089 -1.298221,1.18533 -0.620888,0.56445 -1.41111,1.04422 l -0.05644,-0.11289 q 0.338666,-0.22577 0.564444,-0.59266 0.225777,-0.39511 0.536221,-0.67734 0.282222,-0.254 0.733778,-0.56444 0.479777,-0.33867 0.987777,-0.62089 0.507999,-0.31044 1.015999,-0.508 0.536222,-0.22578 0.959555,-0.28222 0.02822,-0.31044 0.05644,-0.62089 0.02822,-0.33866 0.02822,-0.64911 0,-0.45155 -0.141111,-0.98778 -0.141111,-0.53622 -0.423333,-0.98777 -0.253999,-0.47978 -0.64911,-0.79022 -0.395111,-0.31045 -0.931333,-0.31045 -0.141111,0 -0.423333,0.0564 -0.225778,0.508 -0.395111,1.04422 -0.169333,0.53622 -0.705555,0.84666 -0.254,0.14111 -0.592666,0.36689 -0.338666,0.19756 -0.705555,0.42334 -0.366889,0.19755 -0.705555,0.36688 -0.338666,0.16934 -0.620888,0.19756 -0.05644,-0.22578 -0.05644,-0.33867 0,-0.62089 0.395111,-0.95955 0.423333,-0.36689 0.846666,-0.67733 0.479777,-0.36689 1.100666,-0.79023 0.64911,-0.42333 1.326443,-0.762 0.705555,-0.36688 1.41111,-0.59266 0.733778,-0.22578 1.382888,-0.22578 0.762,0 1.298221,0.47978 0.536222,0.45155 0.874889,1.15711 0.338666,0.67733 0.507999,1.46755 0.169333,0.762 0.197556,1.38289 0.02822,0.45156 0,0.87489 0,0.39511 0.02822,0.84666 0.05644,1.27 0.254,2.48356 0.225777,1.18533 0.169333,2.42711 0.733777,-0.98778 1.467554,-1.94733 0.762,-0.98778 1.128888,-2.20134 l 0.733777,-0.45155 z m -6.886216,0.0564 q -0.649111,0.14111 -1.269999,0.53622 -0.592667,0.39512 -1.128889,0.93134 -0.507999,0.53622 -0.931332,1.15711 -0.395111,0.62089 -0.620889,1.21355 -0.141111,0.33867 -0.282222,0.70556 -0.112888,0.33866 -0.112888,0.70555 0,0.28222 0.169333,0.67734 0.197555,0.36688 0.507999,0.45155 1.382888,-1.29822 2.201332,-2.96333 0.818444,-1.66511 1.467555,-3.41489 z"
         id="path1109" />
      <path
         d="m -44.420763,156.02694 q -0.225777,-0.79022 -0.451555,-1.60866 -0.197555,-0.81844 -0.197555,-1.63689 0,-0.14111 0,-0.22578 0,-0.11289 0.02822,-0.254 l 0.705555,-0.42333 q -0.02822,0.14111 -0.05644,0.31045 0,0.16933 0,0.31044 0,0.81844 0.197555,1.60866 0.197555,0.79023 0.423333,1.55223 z m 7.648217,-3.58422 q -0.169334,0.39512 -0.536222,1.24178 -0.366889,0.81845 -0.790222,1.72156 -0.423333,0.87488 -0.874888,1.60866 -0.423333,0.73378 -0.733777,0.90311 l -1.354666,0.762 q -0.197555,0.11289 -0.423333,0.11289 h -0.112889 q -0.169333,0 -0.282222,-0.11289 -0.05644,-0.0847 -0.338666,-0.42333 -0.254,-0.36689 -0.564444,-0.79022 -0.282222,-0.42334 -0.536222,-0.762 -0.225777,-0.36689 -0.225777,-0.42334 -0.197556,-1.04422 -0.282222,-2.11666 -0.08467,-1.07244 -0.08467,-2.14489 0,-0.53622 -0.282222,-0.70555 -0.282222,-0.16934 -0.761999,-0.16934 -0.564445,0 -1.157111,0.14111 -0.592666,0.14112 -1.100666,0.33867 0.08467,1.016 0.169334,2.06022 0.112888,1.016 0.112888,2.032 0,0.22578 0,0.42333 0.02822,0.19756 0,0.42334 l -3.21733,1.80622 q 0.02822,-0.28223 0.02822,-0.53622 0,-0.254 0,-0.53623 0,-1.46755 -0.141111,-2.87866 -0.112889,-1.43933 -0.169333,-2.90689 -1.157111,0.16934 -2.314221,0.508 -0.423333,0.62089 -0.395111,1.41111 0.05645,0.762 0.05645,1.46756 0,0.22577 -0.02822,0.42333 0,0.19755 -0.02822,0.42333 -0.05644,0.53622 -0.423333,1.29822 -0.366888,0.73378 -0.90311,1.41111 -0.536222,0.67734 -1.185332,1.12889 -0.620889,0.47978 -1.213555,0.47978 -0.649111,0 -1.128888,-0.45156 -0.508,-0.45155 -0.818444,-1.10066 -0.338666,-0.64911 -0.479777,-1.35467 -0.169333,-0.73377 -0.169333,-1.27 v -0.22577 l 0.677332,-0.39512 v 0.31045 q 0,0.53622 0.141111,1.24178 0.112889,0.67733 0.423333,1.29822 0.282222,0.62089 0.733778,1.04422 0.479777,0.45155 1.15711,0.45155 0.169333,0 0.395111,-0.0564 0.112888,-0.14111 0.112888,-0.33867 0,-0.36689 -0.225777,-0.762 -0.197556,-0.39511 -0.197556,-0.87488 v -0.14112 q 0,-1.41111 0.112889,-2.22955 0.112889,-0.84667 0.508,-1.41111 0.395111,-0.59267 1.128888,-1.07244 0.761999,-0.508 2.031998,-1.24178 0.02822,-0.19756 -0.05644,-0.28222 -0.08467,-0.11289 -0.02822,-0.31045 -0.08467,-0.39511 -0.197556,-1.07244 -0.112889,-0.67733 -0.310444,-1.35467 -0.197555,-0.70555 -0.479777,-1.26999 -0.282222,-0.59267 -0.649111,-0.762 -0.141111,0.19755 -0.423333,0.59266 -0.282222,0.36689 -0.536222,0.81845 -0.254,0.42333 -0.423333,0.81844 -0.169333,0.39511 -0.02822,0.62089 l -0.620888,0.36689 q -0.225778,-0.36689 -0.366889,-0.762 -0.141111,-0.39511 -0.141111,-0.81845 0,-0.508 0.282222,-0.93133 0.310444,-0.42333 0.733777,-0.67733 l 2.511776,-1.43933 q 0.395111,-0.19756 0.705555,-0.19756 0.649111,0 0.959555,0.53622 0.338666,0.508 0.338666,1.07245 0,0.47977 -0.112889,0.95955 -0.112888,0.47978 -0.253999,0.95956 -0.112889,0.45155 -0.225778,0.93133 -0.112889,0.45155 -0.112889,0.93133 0,0.254 0.02822,0.39511 0.310445,0.31045 0.649111,0.28222 0.366889,-0.0564 0.761999,0 v -0.22577 q 0,-0.64911 0.02822,-1.29823 0.05644,-0.67733 0.112888,-1.32644 0.903111,-0.81844 1.693332,-1.72155 0.790222,-0.93134 1.777999,-1.72156 -0.141111,1.10067 -0.169333,2.20133 -0.02822,0.93134 -0.141111,1.86267 -0.08467,0.93133 -0.08467,1.86267 v 0.42333 l 1.354666,-0.508 q 0.02822,-0.56445 0.02822,-1.27 0,-0.73378 0.112889,-1.43933 0.141111,-0.70556 0.423333,-1.29822 0.282222,-0.59267 0.846666,-0.93134 0.225778,-0.11289 0.677333,-0.39511 0.451555,-0.28222 0.931332,-0.56444 0.479778,-0.31045 0.931333,-0.508 0.451555,-0.22578 0.677333,-0.22578 0.451555,0 0.761999,0.28222 0.310444,0.254 0.508,0.64911 0.141111,0.28223 0.338666,0.508 0.225778,0.22578 0.310444,0.53623 l -2.681109,1.52399 q -0.08467,-0.28222 -0.112888,-0.762 0,-0.47977 -0.169334,-0.67733 l 0.05645,0.0847 q -0.225778,-0.39511 -0.762,-0.47978 -0.705555,0.98778 -1.298221,2.25778 -0.564444,1.24177 -0.846666,2.42711 0.733777,-0.254 1.552221,-0.53623 0.846666,-0.31044 1.608666,-0.31044 0.253999,0 0.536221,0.0847 0.282222,0.0564 0.423333,0.31044 0.225778,0.33867 0.225778,0.67733 0,0.31045 0.02822,0.67734 0.02822,0.42333 0.141111,0.87489 0.141111,0.45155 0.282222,0.90311 0.141111,0.45155 0.254,0.87488 0.112889,0.39511 0.112889,0.67734 0,0.73377 -0.225778,1.49577 -0.197555,0.73378 -0.197555,1.49578 0,0.19756 0.02822,0.28222 0.08467,-0.19755 0.169333,-0.36689 0.08467,-0.19755 0.169333,-0.36689 0.338667,-0.64911 0.733778,-1.24177 0.423333,-0.59267 0.790221,-1.18533 0.395111,-0.59267 0.705555,-1.21356 0.338667,-0.64911 0.479778,-1.41111 l 0.564444,0.56444 z m -16.679321,-1.52399 q -0.395111,0.31044 -0.733777,0.508 -0.338666,0.19755 -0.733777,0.45155 -0.254,0.14111 -0.536222,0.62089 -0.282222,0.45155 -0.536222,1.016 -0.254,0.53622 -0.451555,1.07244 -0.197555,0.508 -0.282222,0.79022 l -0.705555,0.42334 q 0.08467,-0.28223 0.141111,-0.73378 0.05644,-0.47978 0.141111,-0.93133 0.08467,-0.47978 0.225778,-0.87489 0.141111,-0.42333 0.39511,-0.59267 0.705555,-0.508 1.523999,-0.90311 0.818444,-0.42333 1.552221,-0.84666 z"
         id="path1111" />
      <path
         d="m -24.072592,151.85006 q -0.338667,1.18533 -0.677333,2.22955 -0.338666,1.016 -0.987777,2.08845 -0.197555,0.33866 -0.310444,0.64911 -0.08467,0.28222 -0.451555,0.508 l -2.42711,1.49577 q -0.197555,0.11289 -0.451555,0.11289 -0.536222,0 -0.846666,-0.47978 -0.282222,-0.47977 -0.423333,-1.10066 -0.112889,-0.64911 -0.169333,-1.29822 -0.02822,-0.67734 -0.05644,-1.04422 -0.508,0.90311 -1.044222,1.52399 -0.536222,0.59267 -1.15711,1.07245 -0.592666,0.47977 -1.326444,0.90311 -0.705555,0.42333 -1.580443,0.95955 -0.141111,0.0847 -0.310444,0.14111 -0.169333,0.0847 -0.338666,0.0847 -0.423333,0 -0.705555,-0.45155 -0.254,-0.42334 -0.254,-0.79023 0,-0.36689 0.112889,-0.73377 0.141111,-0.36689 0.282222,-0.70556 0.592666,-1.55222 1.80622,-2.54 1.213555,-0.98777 2.568221,-1.80622 0.479777,-0.28222 0.931332,-0.59266 0.479778,-0.31045 0.959555,-0.53623 v -0.16933 q -0.507999,0.0564 -1.044221,0.16933 -0.508,0.11289 -0.987777,0.31045 -0.649111,0.62089 -1.298222,1.18533 -0.620888,0.56445 -1.41111,1.04422 l -0.05644,-0.11289 q 0.338666,-0.22577 0.564444,-0.59266 0.225778,-0.39511 0.536222,-0.67734 0.282222,-0.254 0.733777,-0.56444 0.479777,-0.33867 0.987777,-0.62089 0.508,-0.31044 1.015999,-0.508 0.536222,-0.22578 0.959555,-0.28222 0.02822,-0.31044 0.05645,-0.62089 0.02822,-0.33866 0.02822,-0.64911 0,-0.45155 -0.141111,-0.98778 -0.141111,-0.53622 -0.423333,-0.98777 -0.254,-0.47978 -0.649111,-0.79022 -0.395111,-0.31045 -0.931333,-0.31045 -0.141111,0 -0.423333,0.0564 -0.225777,0.508 -0.39511,1.04422 -0.169334,0.53622 -0.705555,0.84666 -0.254,0.14111 -0.592667,0.36689 -0.338666,0.19756 -0.705555,0.42334 -0.366888,0.19755 -0.705555,0.36688 -0.338666,0.16934 -0.620888,0.19756 -0.05644,-0.22578 -0.05644,-0.33867 0,-0.62089 0.39511,-0.95955 0.423333,-0.36689 0.846666,-0.67733 0.479778,-0.36689 1.100666,-0.79023 0.649111,-0.42333 1.326444,-0.762 0.705555,-0.36688 1.41111,-0.59266 0.733777,-0.22578 1.382888,-0.22578 0.761999,0 1.298221,0.47978 0.536222,0.45155 0.874888,1.15711 0.338666,0.67733 0.508,1.46755 0.169333,0.762 0.197555,1.38289 0.02822,0.45156 0,0.87489 0,0.39511 0.02822,0.84666 0.05645,1.27 0.254,2.48356 0.225778,1.18533 0.169333,2.42711 0.733777,-0.98778 1.467555,-1.94733 0.761999,-0.98778 1.128888,-2.20134 l 0.733777,-0.45155 z m -6.886217,0.0564 q -0.649111,0.14111 -1.269999,0.53622 -0.592666,0.39512 -1.128888,0.93134 -0.508,0.53622 -0.931333,1.15711 -0.395111,0.62089 -0.620888,1.21355 -0.141111,0.33867 -0.282222,0.70556 -0.112889,0.33866 -0.112889,0.70555 0,0.28222 0.169333,0.67734 0.197556,0.36688 0.508,0.45155 1.382888,-1.29822 2.201331,-2.96333 0.818444,-1.66511 1.467555,-3.41489 z"
         id="path1113" />
    </g>
  </g>
</svg>
