<?xml version="1.0" encoding="UTF-8" standalone="no"?>
<!-- Created with Inkscape (http://www.inkscape.org/) -->

<svg
   width="17.626942mm"
   height="78.684456mm"
   viewBox="0 0 17.626942 78.684456"
   version="1.1"
   id="svg7655"
   inkscape:version="1.1.1 (3bf5ae0d25, 2021-09-20)"
   sodipodi:docname="рисунок.svg"
   xmlns:inkscape="http://www.inkscape.org/namespaces/inkscape"
   xmlns:sodipodi="http://sodipodi.sourceforge.net/DTD/sodipodi-0.dtd"
   xmlns="http://www.w3.org/2000/svg"
   xmlns:svg="http://www.w3.org/2000/svg">
  <sodipodi:namedview
     id="namedview7657"
     pagecolor="#ffffff"
     bordercolor="#666666"
     borderopacity="1.0"
     inkscape:pageshadow="2"
     inkscape:pageopacity="0.0"
     inkscape:pagecheckerboard="0"
     inkscape:document-units="px"
     showgrid="false"
     fit-margin-top="0"
     fit-margin-left="0"
     fit-margin-right="0"
     fit-margin-bottom="0"
     inkscape:zoom="1.2396987"
     inkscape:cx="-25.812725"
     inkscape:cy="126.64368"
     inkscape:window-width="1366"
     inkscape:window-height="743"
     inkscape:window-x="0"
     inkscape:window-y="25"
     inkscape:window-maximized="1"
     inkscape:current-layer="layer2" />
  <defs
     id="defs7652" />
  <g
     inkscape:label="Слой 1"
     inkscape:groupmode="layer"
     id="layer1"
     transform="translate(-122.93386,-66.188949)"
     style="display:inline">
    <path
       style="display:inline;opacity:0.5;fill:#001167;stroke-width:0.100506"
       d="m 130.65399,144.81208 c 0.0725,-0.029 0.15924,-0.0255 0.19264,0.008 0.0334,0.0334 -0.0259,0.0572 -0.13191,0.0528 -0.11709,-0.005 -0.1409,-0.0286 -0.0607,-0.0607 z m 0.60304,-0.10051 c 0.0726,-0.029 0.15924,-0.0255 0.19263,0.008 0.0334,0.0334 -0.0259,0.0572 -0.13191,0.0528 -0.11708,-0.005 -0.1409,-0.0286 -0.0607,-0.0607 z m 0.82573,-0.2205 c 1.41703,-0.45354 2.65045,-1.43727 3.41796,-2.72603 0.75279,-1.26405 1.42247,-3.26404 1.64904,-4.92481 0.0924,-0.67724 0.18711,-2.25833 0.18908,-3.15633 0.001,-0.43709 0.0342,-0.70678 0.0738,-0.59955 0.0396,0.10719 0.1563,0.26038 0.25922,0.34042 0.1799,0.13992 0.18037,0.13758 0.0122,-0.0605 -0.1498,-0.17654 -0.19014,-0.7561 -0.0729,-1.04678 0.0112,-0.0277 0.0138,-0.0875 0.006,-0.13311 -0.008,-0.0456 0.0341,-0.0529 0.0935,-0.0162 0.0765,0.0473 0.0758,0.10528 -0.002,0.19953 -0.07,0.0844 -0.0744,0.15501 -0.0121,0.19353 0.054,0.0334 0.12577,-0.0264 0.15953,-0.13274 0.0338,-0.10636 0.13616,-0.25401 0.22754,-0.3281 0.0996,-0.0807 0.13764,-0.0872 0.095,-0.016 -0.0392,0.0653 -0.0252,0.1471 0.031,0.18181 0.0562,0.0347 0.1078,-0.007 0.11471,-0.0935 0.0234,-0.29132 0.0375,-0.34076 0.12144,-0.42471 0.0461,-0.0461 0.0687,-0.0385 0.0503,0.0168 -0.0184,0.0553 0.0117,0.10051 0.067,0.10051 0.0553,0 0.0952,-0.0781 0.0887,-0.17362 -0.006,-0.0955 0.0282,-0.14889 0.077,-0.11868 0.0489,0.0302 0.0648,0.0939 0.0353,0.14153 -0.0294,0.0476 -0.008,0.11503 0.0486,0.14975 0.0562,0.0347 0.10532,-0.0187 0.10921,-0.11869 0.006,-0.16337 0.0167,-0.16142 0.1019,0.0192 0.0825,0.17489 0.0901,0.16624 0.0588,-0.0666 -0.029,-0.21536 2e-4,-0.26065 0.14937,-0.23192 0.10197,0.0196 0.18609,-0.0182 0.18693,-0.0841 7.6e-4,-0.0722 0.0403,-0.06 0.099,0.0309 0.10447,0.16166 0.12852,0.10101 0.12775,-0.32216 -2e-4,-0.0943 0.0275,-0.16806 0.0616,-0.16398 0.191,0.0229 0.22271,-0.0357 0.1042,-0.19228 -0.1149,-0.15184 -0.11314,-0.15802 0.0128,-0.0452 0.0802,0.0719 0.14591,0.17363 0.14591,0.22615 0,0.14488 0.19375,0.0646 0.21639,-0.0896 0.0403,-0.27433 0.14179,-0.24703 0.14728,0.0396 0.003,0.16294 0.0275,0.8616 0.0541,1.55258 0.12367,3.20636 -0.74103,6.27929 -2.22764,7.91649 -0.58085,0.6397 -3.57695,3.01035 -4.55604,3.60495 -0.53991,0.3279 -1.62968,0.74497 -1.92027,0.73492 -0.086,-0.003 0.0937,-0.0854 0.39926,-0.18324 z m 5.77752,-11.3631 c -0.0206,-0.10699 0.0294,-0.25005 0.11122,-0.31792 0.12654,-0.10502 0.14112,-0.0817 0.0979,0.15661 -0.0279,0.154 -0.0339,0.26315 -0.0133,0.24255 0.0206,-0.0206 0.0336,-0.0601 0.0288,-0.0877 -0.005,-0.0277 0.0474,-0.15494 0.11589,-0.28289 0.10567,-0.19744 0.15005,-0.21337 0.29338,-0.10535 0.14271,0.10756 0.14941,0.10545 0.0432,-0.0136 -0.0691,-0.0775 -0.12563,-0.20974 -0.12563,-0.2939 0,-0.10049 0.0601,-0.0677 0.1751,0.0955 0.0963,0.13668 0.16038,0.29373 0.14239,0.34901 -0.018,0.0553 0.003,0.0653 0.0456,0.0222 0.12098,-0.12097 0.13328,-0.37041 0.0171,-0.34574 -0.0571,0.0121 -0.12324,-0.0309 -0.1471,-0.0956 -0.0239,-0.0647 0.0157,-0.10862 0.0879,-0.0977 0.2368,0.0359 0.38716,0.17664 0.31786,0.29758 -0.0391,0.0683 -0.0291,0.0831 0.0235,0.035 0.0503,-0.0461 0.0971,-0.12522 0.10406,-0.17588 0.007,-0.0507 0.0238,-0.11475 0.0377,-0.14239 0.0138,-0.0276 0.0308,-0.0955 0.0377,-0.15076 0.007,-0.0553 0.0578,-0.0892 0.11307,-0.0754 0.0553,0.0138 0.0881,0.0624 0.0729,0.10798 -0.0152,0.0456 0.0209,0.0528 0.0803,0.0162 0.0719,-0.0445 0.0747,-0.10669 0.008,-0.18673 -0.099,-0.11928 -0.005,-0.38347 0.13539,-0.37985 0.0403,0.001 0.13952,0.0841 0.22045,0.18447 0.13592,0.16863 0.13879,0.16531 0.0376,-0.0436 -0.0603,-0.12438 -0.0854,-0.22614 -0.0558,-0.22614 0.0296,0 0.0877,0 0.12916,0 0.0415,0 0.0754,0.0414 0.0754,0.0921 0,0.0507 0.0325,0.12463 0.0722,0.16435 0.0397,0.0397 0.0538,-0.0234 0.0313,-0.14026 -0.0225,-0.11688 -3.8e-4,-0.23751 0.049,-0.26809 0.0495,-0.0306 0.0626,-0.12693 0.0291,-0.21413 -0.0552,-0.14378 -0.069,-0.14388 -0.14902,-0.001 -0.0485,0.0867 -0.149,0.13426 -0.22333,0.10573 -0.0743,-0.0285 -0.16078,0.015 -0.19213,0.0967 -0.0313,0.0817 -0.13895,0.13603 -0.23911,0.12073 -0.1147,-0.0175 -0.20238,0.0505 -0.23689,0.18386 -0.0333,0.12863 -0.14174,0.21662 -0.27639,0.22426 -0.12188,0.007 -0.25553,0.0236 -0.29699,0.037 -0.0415,0.0135 -0.10595,0.0202 -0.14332,0.0151 -0.0374,-0.005 -0.1,0.13645 -0.13918,0.31474 l -0.0713,0.32417 -0.0945,-0.25127 -0.0945,-0.25127 -0.14801,0.27938 c -0.0814,0.15365 -0.18402,0.25712 -0.22803,0.22992 -0.1006,-0.0622 -0.0822,0.35196 0.0231,0.52089 0.1135,0.18203 0.16096,0.15431 0.11797,-0.0689 z m -0.002,-0.4085 c 0.10997,-0.1382 0.20614,-0.26452 0.21372,-0.28073 0.008,-0.0162 0.0444,0.0503 0.0818,0.1477 0.0374,0.0974 0.0353,0.14451 -0.005,0.10462 -0.0399,-0.0399 -0.16666,0.007 -0.2817,0.10357 l -0.20917,0.17611 z m 1.11147,-0.39421 c -0.0326,-0.0528 -0.15284,-0.0779 -0.26716,-0.0559 -0.16775,0.0323 -0.18548,0.0131 -0.0919,-0.0997 0.0638,-0.0768 0.20183,-0.12315 0.3068,-0.10294 0.11758,0.0226 0.27159,-0.0669 0.4011,-0.23316 0.15778,-0.20259 0.18363,-0.2149 0.10363,-0.0494 -0.0586,0.12129 -0.15232,0.2488 -0.2082,0.28334 -0.0559,0.0345 -0.0775,0.10177 -0.0481,0.14941 0.0294,0.0476 0.0107,0.11309 -0.0417,0.14546 -0.0524,0.0324 -0.12189,0.0156 -0.15451,-0.0372 z m 0.64846,-0.6488 c 0,-0.0208 0.0791,-0.10002 0.17589,-0.17589 0.15941,-0.12501 0.16296,-0.12145 0.0379,0.0379 -0.1313,0.16742 -0.21383,0.22066 -0.21383,0.13794 z m 0.35489,-0.56004 c -0.037,-0.0599 -0.11419,-0.0798 -0.17155,-0.0444 -0.0675,0.0417 -0.0572,0.0935 0.0292,0.14694 0.16129,0.0997 0.23471,0.0468 0.1424,-0.10256 z m -2.65066,1.50254 c 0,-0.13819 0.0228,-0.19473 0.0507,-0.12563 0.0279,0.0691 0.0279,0.18217 0,0.25127 -0.0279,0.0691 -0.0507,0.0126 -0.0507,-0.12564 z m -5.4831,-7.21969 c -0.0284,-0.0461 -0.17813,-0.0749 -0.33258,-0.0641 -0.18655,0.0131 -0.20433,0.005 -0.053,-0.0236 0.14243,-0.027 0.20113,-0.0878 0.15659,-0.16206 -0.05,-0.0833 -0.0252,-0.0815 0.0829,0.006 0.0848,0.0686 0.1764,0.10254 0.20356,0.0754 0.0272,-0.0272 0.0494,0.0185 0.0494,0.10139 0,0.17004 -0.0311,0.18956 -0.1069,0.067 z m 1.90355,-1.01488 c -0.0318,-0.0514 -0.0194,-0.11731 0.0276,-0.14633 0.047,-0.029 0.0854,0.0131 0.0854,0.0936 0,0.16947 -0.0317,0.18428 -0.11297,0.0528 z m 0.28048,-0.25378 c 0,-0.0805 0.0384,-0.12259 0.0854,-0.0936 0.047,0.029 0.0594,0.0949 0.0276,0.14634 -0.0813,0.1315 -0.11297,0.11669 -0.11297,-0.0528 z m -4.86273,-2.48066 c 0.77437,-0.12839 2.76228,-0.80897 3.61021,-1.23598 0.71441,-0.35978 0.71651,-0.36205 0.72645,-0.78671 0.005,-0.23423 0.0221,-0.53895 0.0369,-0.67715 0.0148,-0.1382 0.0581,-0.77139 0.0962,-1.40709 0.0381,-0.6357 0.0844,-1.38196 0.10293,-1.65835 0.0185,-0.27639 0.0639,-1.04527 0.10066,-1.70861 0.0368,-0.66334 0.0843,-1.4096 0.10551,-1.65835 0.0212,-0.24876 0.0664,-0.97241 0.10035,-1.6081 0.034,-0.63571 0.0769,-1.38196 0.0955,-1.65836 0.0185,-0.27639 0.0638,-1.04526 0.10067,-1.7086 0.0368,-0.66335 0.0839,-1.40961 0.10461,-1.65836 0.0207,-0.24875 0.0669,-0.94978 0.10267,-1.55785 0.0358,-0.60806 0.0804,-1.26386 0.0994,-1.45734 0.0189,-0.19347 0.0636,-0.82666 0.0994,-1.40708 0.0358,-0.58043 0.0804,-1.21362 0.0992,-1.40709 0.0188,-0.193477 0.0645,-0.804047 0.10164,-1.356837 0.0371,-0.55278 0.0825,-1.16336 0.10083,-1.35683 0.0183,-0.19348 0.0633,-0.75883 0.10006,-1.25633 0.0367,-0.49751 0.0816,-1.06286 0.0997,-1.25633 0.0181,-0.19347 0.0638,-0.78144 0.10155,-1.30658 0.0377,-0.52514 0.0836,-1.11311 0.10194,-1.30658 0.0404,-0.42661 0.17783,-2.17829 0.30356,-3.8695 0.12573,-1.69107 0.16059,-2.1372 0.20027,-2.56291 0.0232,-0.24875 0.0677,-0.83671 0.0989,-1.30658 0.0312,-0.46986 0.0757,-1.05783 0.0989,-1.30658 0.0232,-0.24875 0.0691,-0.79149 0.10208,-1.20607 0.033,-0.41459 0.0782,-0.95733 0.10051,-1.20608 0.0223,-0.24875 0.0669,-0.79149 0.099,-1.20608 0.0321,-0.41458 0.078,-0.91209 0.10202,-1.10556 0.024,-0.19348 0.0727,-0.69099 0.10825,-1.10557 0.0356,-0.41459 0.0805,-0.88948 0.0999,-1.05532 0.0194,-0.16584 0.062,-0.5882 0.0946,-0.938591 0.0326,-0.35039 0.0781,-0.81804 0.10116,-1.03922 0.11469,-1.10144 0.18472,-2.48398 0.19156,-3.78166 0.006,-1.14635 0.03,-1.38321 0.11807,-1.16885 0.0608,0.14787 0.0987,0.3767 0.0842,0.50851 -0.0145,0.13182 0.013,0.21538 0.061,0.1857 0.048,-0.0297 0.0582,-0.13167 0.0226,-0.22664 -0.0567,-0.15133 -0.0436,-0.15549 0.10613,-0.0337 0.13976,0.1137 0.14807,0.16853 0.0457,0.30152 -0.081,0.10521 -0.046,0.095 0.0993,-0.0289 0.2109,-0.17994 0.31429,-0.11335 0.14902,0.096 -0.0415,0.0525 -0.0335,0.0626 0.0177,0.0225 0.0512,-0.0401 0.16427,-0.0175 0.25127,0.0503 0.13676,0.10656 0.14093,0.10115 0.0308,-0.0399 -0.07,-0.0897 -0.0991,-0.23672 -0.0646,-0.32664 0.0358,-0.0934 0.0125,-0.1635 -0.0544,-0.1635 -0.067,0 -0.0849,0.0538 -0.0417,0.12563 0.0602,0.10021 0.0443,0.10039 -0.0787,8.8e-4 -0.0848,-0.0686 -0.1877,-0.0912 -0.22868,-0.0503 -0.041,0.041 -0.0594,0.007 -0.041,-0.0763 0.0184,-0.0829 -0.023,-0.13945 -0.0921,-0.12563 -0.0691,0.0138 -0.12563,-0.0249 -0.12563,-0.0861 0,-0.0612 0.0623,-0.0873 0.13851,-0.0581 0.0762,0.0292 0.18414,0.008 0.23992,-0.0483 0.0682,-0.0682 0.12402,-0.0648 0.17048,0.0103 0.038,0.0615 0.025,0.0993 -0.0289,0.0841 -0.0539,-0.0152 -0.0995,0.0176 -0.10139,0.0729 -0.002,0.0553 0.062,0.0871 0.14205,0.0707 0.08,-0.0164 0.16941,0.0324 0.19862,0.10853 0.0554,0.14433 0.31595,0.16477 0.51694,0.0406 0.0643,-0.0397 0.14579,-0.0256 0.18106,0.0315 0.0353,0.0571 0.11324,0.0734 0.17324,0.0364 0.0723,-0.0447 0.0793,-0.0199 0.0207,0.0737 -0.12567,0.20067 -0.0569,0.50897 0.16776,0.75166 0.10612,0.11465 0.15861,0.24628 0.11664,0.2925 -0.042,0.0462 -0.0176,0.0502 0.0542,0.009 0.0961,-0.0555 0.10147,-0.11032 0.0203,-0.20818 -0.0625,-0.0753 -0.071,-0.15713 -0.0196,-0.18891 0.15538,-0.096 0.32346,0.39529 0.18769,0.54864 -0.0972,0.1098 -0.0881,0.11067 0.0521,0.005 0.10146,-0.0765 0.14449,-0.19604 0.10682,-0.29667 -0.0551,-0.14728 -0.0416,-0.15101 0.10772,-0.0296 0.13975,0.11369 0.14806,0.16852 0.0457,0.30152 -0.0953,0.12382 -0.0751,0.12003 0.0849,-0.0159 0.17411,-0.14792 0.22922,-0.15524 0.32252,-0.0428 0.0795,0.0958 0.0811,0.16696 0.006,0.24246 -0.0755,0.0755 -0.0741,0.12715 0.005,0.17594 0.0615,0.038 0.10528,0.0318 0.0974,-0.0138 -0.008,-0.0456 -0.006,-0.10546 0.005,-0.1331 0.0815,-0.20903 0.0705,-0.39274 -0.0201,-0.33672 -0.0678,0.0419 -0.0773,0.0179 -0.0259,-0.0653 0.052,-0.0841 0.0419,-0.10723 -0.0278,-0.0641 -0.06,0.0371 -0.13796,0.0207 -0.17324,-0.0364 -0.0353,-0.0571 -0.10573,-0.0781 -0.15655,-0.0467 -0.0515,0.0318 -0.0625,-0.0209 -0.0248,-0.11892 0.0419,-0.10917 0.0829,-0.13 0.10794,-0.0548 0.0222,0.0666 0.084,0.0943 0.1372,0.0614 0.0587,-0.0363 0.0462,-0.12546 -0.032,-0.22677 -0.0902,-0.11686 -0.0613,-0.10934 0.0962,0.0251 0.12376,0.10561 0.20253,0.21452 0.17503,0.24202 -0.0275,0.0275 0.005,0.11669 0.073,0.19821 0.195,0.23496 0.12832,3.64981 -0.11668,5.976041 -0.37428,3.55351 -0.76094,7.48187 -0.85819,8.71892 -0.0703,0.89359 -0.25002,2.98295 -0.35455,4.12076 -0.0533,0.58042 -0.11965,1.32668 -0.14739,1.65835 -0.0728,0.87035 -0.23044,2.6666 -0.40135,4.57304 -0.46473,5.183697 -0.73344,8.679077 -1.2633,16.432777 -0.0567,0.82917 -0.12277,1.77896 -0.1469,2.11063 -0.0241,0.33167 -0.0945,1.37191 -0.15633,2.31165 -0.0619,0.93973 -0.13239,1.80982 -0.15673,1.93352 -0.0576,0.29272 -0.29788,0.40964 -3.25724,1.58488 -2.43293,0.96618 -4.05102,1.46776 -4.6613,1.44491 -0.21574,-0.008 -0.14262,-0.0401 0.23411,-0.10259 z m 9.65348,-50.776518 c 0,-0.0191 -0.10177,-0.12084 -0.22614,-0.22614 l -0.22614,-0.19147 0.19146,0.22614 c 0.17993,0.21252 0.26082,0.2719 0.26082,0.19147 z m 0.14121,-0.17717 c -0.10531,-0.11652 -0.17624,-0.30377 -0.15763,-0.41612 0.0266,-0.16045 -0.006,-0.19042 -0.15076,-0.13968 -0.17761,0.0621 -0.17771,0.0592 -0.003,-0.0768 0.10497,-0.0816 0.13979,-0.16739 0.0823,-0.2029 -0.11497,-0.0711 -0.2081,0.0524 -0.26587,0.35233 -0.0354,0.18356 -0.0198,0.1932 0.12255,0.0758 0.13838,-0.11422 0.15491,-0.11177 0.10925,0.0162 -0.0467,0.13077 0.27128,0.60304 0.40598,0.60304 0.0266,0 -0.0378,-0.0953 -0.14315,-0.21185 z m -0.67629,-0.21531 c 3.8e-4,-0.0691 0.0329,-0.22475 0.0719,-0.34589 0.0577,-0.17913 0.0335,-0.21744 -0.12984,-0.20514 -0.15102,0.0114 -0.17436,0.047 -0.0942,0.1436 0.0587,0.0707 0.0821,0.19248 0.0521,0.27069 -0.03,0.0782 -0.0275,0.16925 0.005,0.2023 0.0838,0.0838 0.0935,0.0771 0.0945,-0.0656 z m 1.18317,0.009 c -0.0616,-0.19422 -0.0791,-0.19935 -0.16371,-0.0481 -0.0521,0.0931 -0.13716,0.14301 -0.18904,0.11094 -0.11602,-0.0717 -0.12514,-0.51806 -0.012,-0.58798 0.0453,-0.028 0.0647,0.0937 0.0431,0.27047 -0.0289,0.23742 -0.0128,0.28322 0.0618,0.17537 0.0555,-0.0803 0.0727,-0.19335 0.0381,-0.25126 -0.0346,-0.0579 0.006,-0.0499 0.0894,0.0179 0.1203,0.0973 0.17872,0.0973 0.27774,0 0.0993,-0.0976 0.11867,-0.0918 0.0931,0.0275 -0.0178,0.0829 0.0196,0.141 0.083,0.12907 0.0711,-0.0134 0.0937,0.0609 0.059,0.1936 l -0.0563,0.21529 -0.0809,-0.21872 c -0.10155,-0.27453 -0.22416,-0.29031 -0.13764,-0.0177 0.0351,0.11056 0.0412,0.20101 0.0136,0.20101 -0.0277,0 -0.0813,-0.0978 -0.11925,-0.21738 z m -1.36446,-0.96357 c -0.12501,-0.15941 -0.12146,-0.16296 0.038,-0.0379 0.0967,0.0759 0.17589,0.15501 0.17589,0.17588 0,0.0827 -0.0825,0.0295 -0.21384,-0.13794 z"
       id="path102223" />
  </g>
  <g
     inkscape:groupmode="layer"
     id="layer3"
     inkscape:label="Слой 3"
     style="display:inline">
    <path
       style="display:inline;opacity:0.5;fill:#0335a7;stroke-width:0.100506"
       d="m 6.4029995,78.626915 c 0.23493,-0.0212 0.61937,-0.0212 0.8543,0 0.23494,0.0212 0.0427,0.0385 -0.42715,0.0385 -0.46987,0 -0.66209,-0.0173 -0.42715,-0.0385 z m 1.47975,-0.0313 c -0.0327,-0.0529 0.0337,-0.0961 0.14754,-0.0961 0.24268,0 0.26716,0.0559 0.0594,0.13562 -0.0812,0.0311 -0.17427,0.0134 -0.20695,-0.0395 z m 0.60575,-0.0961 c -0.0342,-0.0553 -0.0142,-0.1005 0.0443,-0.1005 0.0585,0 0.10643,0.0452 0.10643,0.1005 0,0.0553 -0.0199,0.10051 -0.0443,0.10051 -0.0244,0 -0.0723,-0.0452 -0.10644,-0.10051 z m 2.5349905,-1.21113 c 0.12284,-0.12927 0.24279,-0.21494 0.26655,-0.19037 0.0238,0.0246 -0.0767,0.13034 -0.22335,0.23503 l -0.26654,0.19037 z m 1.08425,-1.15076 c 0.40274,-0.55944 0.51408,-0.66309 0.28966,-0.26965 -0.10459,0.18336 -0.27767,0.4095 -0.38462,0.50253 -0.11311,0.0984 -0.0734,7.6e-4 0.095,-0.23288 z m 0.67254,-1.10336 c 0.12026,-0.24754 0.2359,-0.43284 0.25697,-0.41177 0.0455,0.0455 -0.36065,0.86184 -0.42873,0.86184 -0.0258,0 0.0515,-0.20254 0.17176,-0.45007 z m 0.28431,-0.56784 c -0.002,-0.0347 0.0692,-0.23611 0.15758,-0.44756 0.22829,-0.54639 0.62795,-2.36946 0.71429,-3.25832 0.14975,-1.54171 0.0674,-4.1564 -0.16219,-5.14591 -0.0474,-0.20453 -0.0614,-0.39675 -0.031,-0.42715 0.0304,-0.0304 -0.009,-0.056 -0.0871,-0.0568 -0.11724,-0.001 -0.11576,-0.0188 0.008,-0.099 0.0829,-0.0536 0.0995,-0.0981 0.0369,-0.099 -0.14717,-0.002 -0.25507,-0.41138 -0.14473,-0.5491 0.0811,-0.10117 -0.0316,-0.55801 -0.13766,-0.55801 -0.0281,0 -0.007,0.11566 0.0467,0.25701 0.0537,0.14135 0.0581,0.23251 0.01,0.20258 -0.13071,-0.0808 -0.20739,-0.45109 -0.10634,-0.51355 0.10285,-0.0636 -0.18758,-0.73278 -0.41276,-0.9511 -0.0855,-0.0829 -0.0968,-0.1113 -0.0251,-0.0631 0.22373,0.15048 0.14294,-0.0169 -0.14602,-0.30246 -0.15201,-0.15024 -0.18984,-0.2086 -0.084,-0.1297 0.18077,0.13484 0.185,0.12969 0.0703,-0.0855 -0.0671,-0.12592 -0.16609,-0.20171 -0.21996,-0.16841 -0.0539,0.0333 -0.0915,0.0232 -0.0836,-0.0223 0.0352,-0.20265 -0.0176,-0.3409 -0.10877,-0.28458 -0.0546,0.0338 -0.0767,0.002 -0.049,-0.0699 0.0674,-0.17579 -1.10421,-1.43201 -1.251,-1.34129 -0.0623,0.0385 -0.10082,0.0188 -0.0856,-0.0438 0.0356,-0.14644 -0.6166,-0.51033 -1.3543402,-0.75569 -0.5432407,-0.18066 -0.6310407,-0.25652 -0.5814407,-0.50234 0.0112,-0.0553 -0.0133,-0.067 -0.0542,-0.026 -0.041,0.041 -0.14389,0.0183 -0.2286796,-0.0503 -0.12298,-0.0995 -0.1389,-0.0993 -0.0787,7.6e-4 0.0523,0.087 -10e-4,0.12563 -0.17334,0.12563 -0.13686,0 -0.27164,0.0565 -0.29952,0.12563 -0.039,0.0966 -0.0525,0.0953 -0.0586,-0.006 -0.004,-0.0724 -0.0575,-0.10094 -0.11807,-0.0635 -0.0606,0.0375 -0.27427,0.084 -0.47487,0.10342 -0.20061,0.0194 -0.50156,0.0646 -0.66879,0.10036 -0.4816,0.10299 -0.30092,0.007 1.30405,-0.68967 1.78528,-0.77542 2.1940205,-0.91321 2.5225805,-0.8504 0.13538,0.0259 0.27034,0.008 0.29993,-0.04 0.0296,-0.0479 0.25731,-0.087 0.50606,-0.087 0.24875,0 0.43136,0.0339 0.40578,0.0754 -0.0256,0.0415 0.17291,0.0786 0.44106,0.0826 0.72548,0.0108 1.87664,0.61376 2.65213,1.38925 0.5679,0.5679 1.3008,1.61263 1.38064,1.96808 0.0183,0.0816 0.0925,0.21181 0.16474,0.28935 0.0723,0.0776 0.10762,0.203 0.0785,0.27879 -0.0291,0.0758 -0.006,0.1378 0.0504,0.1378 0.0568,0 0.0753,0.0452 0.0412,0.10051 -0.0342,0.0553 -0.009,0.1005 0.0551,0.1005 0.0645,0 0.0912,0.0678 0.0593,0.15076 -0.0318,0.0829 -0.009,0.15076 0.0503,0.15076 0.0595,0 0.0821,0.0678 0.0503,0.15076 -0.0318,0.0829 -0.009,0.15076 0.0512,0.15076 0.06,0 0.0854,0.0904 0.0565,0.20101 -0.0289,0.11056 -0.007,0.20101 0.0493,0.20101 0.056,0 0.0764,0.0664 0.0452,0.14754 -0.0311,0.0811 -0.0208,0.16969 0.023,0.19676 0.0438,0.0271 0.0713,0.15289 0.0611,0.27961 -0.0102,0.12672 0.0305,0.26228 0.0905,0.30126 0.0778,0.0506 0.0754,0.16003 -0.009,0.38257 -0.0966,0.25587 -0.0918,0.32164 0.0265,0.36705 0.18465,0.0709 0.18485,0.27696 3.8e-4,0.43002 -0.0791,0.0656 -0.12571,0.21295 -0.10366,0.32742 0.022,0.11447 0.008,0.17563 -0.0321,0.13591 -0.0397,-0.0398 -0.0722,-0.11373 -0.0722,-0.1644 0,-0.0507 -0.0339,-0.0921 -0.0754,-0.0921 -0.0415,0 -0.0996,0 -0.12917,0 -0.0296,0 -0.004,0.10176 0.0558,0.22614 0.0931,0.19212 0.0898,0.20196 -0.0216,0.0654 -0.0722,-0.0884 -0.17135,-0.17142 -0.22045,-0.18447 -0.14609,-0.0388 -0.25903,0.22828 -0.15136,0.35801 0.0664,0.08 0.0637,0.14228 -0.008,0.18672 -0.0593,0.0367 -0.0954,0.0226 -0.0803,-0.0313 0.0152,-0.0539 -0.0176,-0.10245 -0.0729,-0.10798 -0.0553,-0.006 -0.10616,0.0352 -0.11307,0.0905 -0.007,0.0553 -0.0239,0.12312 -0.0377,0.15076 -0.0138,0.0277 -0.0308,0.0917 -0.0377,0.14238 -0.007,0.0507 -0.0537,0.12982 -0.10405,0.17589 -0.0526,0.0482 -0.0626,0.0333 -0.0235,-0.035 0.0693,-0.12094 -0.0811,-0.2617 -0.31786,-0.29758 -0.0722,-0.0109 -0.1118,0.033 -0.0879,0.0977 0.0239,0.0647 0.0901,0.10766 0.1471,0.0956 0.098,-0.0208 0.11223,0.23553 0.0165,0.29549 -0.0246,0.0154 -0.035,0.0107 -0.023,-0.0106 0.012,-0.0212 -0.0671,-0.1517 -0.17588,-0.28995 -0.207,-0.26315 -0.27146,-0.5832 -0.0956,-0.4745 0.0562,0.0347 0.0715,0.11654 0.034,0.18182 -0.0375,0.0653 0.0559,0.006 0.20747,-0.13258 0.15156,-0.1382 0.30584,-0.23817 0.34285,-0.22216 0.037,0.016 0.0818,-0.0638 0.0996,-0.17738 0.0178,-0.11356 0.0723,-0.18175 0.12125,-0.15152 0.0489,0.0302 0.0627,0.13266 0.0307,0.22763 -0.0371,0.11018 0.003,0.0902 0.11178,-0.0551 0.0935,-0.1253 0.21161,-0.2021 0.26247,-0.17067 0.0513,0.0317 0.0628,-0.0201 0.0259,-0.11627 -0.0514,-0.134 -0.0274,-0.15842 0.10546,-0.10742 0.10922,0.0419 0.19408,0.009 0.23245,-0.0915 0.0491,-0.12806 0.078,-0.13244 0.1546,-0.0234 0.0749,0.10659 0.0857,0.10317 0.053,-0.0167 -0.0226,-0.0829 -0.10522,-0.15281 -0.18353,-0.15533 -0.0783,-0.003 -0.13253,-0.0547 -0.12047,-0.11599 0.012,-0.0613 -0.0558,-0.1723 -0.15076,-0.2467 -0.1558,-0.12205 -0.15919,-0.11808 -0.0347,0.0406 0.12275,0.15651 0.0924,0.21523 -0.0993,0.19227 -0.034,-0.004 -0.0618,0.0697 -0.0616,0.16398 7.6e-4,0.42317 -0.0233,0.48382 -0.12775,0.32216 -0.0587,-0.0909 -0.098,-0.10314 -0.099,-0.0309 -7.6e-4,0.0659 -0.085,0.1038 -0.18693,0.0842 -0.14919,-0.0287 -0.17836,0.0166 -0.14937,0.23191 0.0313,0.23283 0.0237,0.24149 -0.0588,0.0666 -0.0852,-0.18062 -0.0956,-0.18257 -0.10189,-0.0192 -0.004,0.1 -0.053,0.15341 -0.10921,0.11869 -0.0562,-0.0347 -0.0781,-0.1021 -0.0486,-0.14974 0.0294,-0.0476 0.0136,-0.11133 -0.0353,-0.14154 -0.0489,-0.0302 -0.0835,0.0334 -0.077,0.14137 0.006,0.10796 -0.0334,0.19287 -0.0887,0.18869 -0.0553,-0.004 -0.0854,-0.0596 -0.067,-0.12319 0.0184,-0.0636 -0.004,-0.0779 -0.0503,-0.0318 -0.0839,0.084 -0.0981,0.13339 -0.12145,0.42471 -0.007,0.0862 -0.0585,0.12828 -0.11471,0.0936 -0.0562,-0.0347 -0.0701,-0.11654 -0.0309,-0.18182 0.0427,-0.0711 0.005,-0.0647 -0.095,0.016 -0.0914,0.0741 -0.19378,0.22174 -0.22754,0.32811 -0.0338,0.10636 -0.10555,0.1661 -0.15953,0.13273 -0.0623,-0.0385 -0.0579,-0.10916 0.0121,-0.19352 0.0782,-0.0943 0.0789,-0.15224 0.002,-0.19954 -0.0593,-0.0367 -0.1014,-0.0294 -0.0935,0.0162 0.008,0.0456 0.005,0.10546 -0.006,0.1331 -0.11729,0.29069 -0.077,0.87024 0.0729,1.04678 0.16812,0.19812 0.16764,0.20046 -0.0123,0.0605 -0.10292,-0.08 -0.21957,-0.23323 -0.25922,-0.34042 -0.0397,-0.10721 -0.0729,0.1625 -0.0738,0.59955 -0.005,2.36573 -0.30013,4.4148 -0.85059,5.90774 -0.27868,0.7558 -0.47898,1.19099 -0.48556,1.05497 z m 1.37009,-8.15328 c -0.0279,-0.0691 -0.0507,-0.0126 -0.0507,0.12563 0,0.1382 0.0228,0.19473 0.0507,0.12563 0.0279,-0.0691 0.0279,-0.18216 0,-0.25126 z m 1.7258,-0.20232 c -0.0184,-0.0237 0.0343,-0.12928 0.11725,-0.23451 0.13614,-0.17278 0.13524,-0.17924 -0.009,-0.0666 -0.088,0.0686 -0.18332,0.10144 -0.21181,0.073 -0.0285,-0.0285 -0.1148,0.0258 -0.19177,0.12067 -0.0772,0.0952 -0.0868,0.14058 -0.0213,0.1013 0.0653,-0.0392 0.14895,-0.0222 0.18595,0.0376 0.037,0.0599 0.0891,0.087 0.11582,0.0603 0.0267,-0.0267 0.0335,-0.068 0.015,-0.0917 z m -2.02732,-0.40072 c -0.0279,-0.0691 -0.0507,-0.0126 -0.0507,0.12563 0,0.1382 0.0228,0.19473 0.0507,0.12564 0.0279,-0.0691 0.0279,-0.18217 0,-0.25127 z m -0.11682,-0.57791 c -0.0905,-0.41219 -0.17173,-0.33099 -0.0879,0.0879 0.0353,0.17659 0.0852,0.30012 0.11077,0.27451 0.0256,-0.0256 0.0153,-0.18871 -0.0228,-0.36245 z m -3.09894,-6.98076 c 0,-0.0805 -0.0384,-0.12259 -0.0854,-0.0936 -0.047,0.029 -0.0594,0.0949 -0.0276,0.14634 0.0813,0.1315 0.11296,0.11669 0.11296,-0.0528 z m 0.28048,-0.14823 c 0.0318,-0.0515 0.0194,-0.11732 -0.0276,-0.14634 -0.047,-0.029 -0.0854,0.0131 -0.0854,0.0936 0,0.16947 0.0317,0.18428 0.11296,0.0528 z m 3.60629,9.01348 c -0.10533,-0.16893 -0.12369,-0.58306 -0.0231,-0.52089 0.044,0.0272 0.14881,-0.0763 0.23291,-0.22992 l 0.1529,-0.27938 0.0698,0.24589 c 0.0555,0.19569 0.0817,0.21201 0.12826,0.08 0.0479,-0.13595 0.0801,-0.12004 0.17813,0.0881 0.10016,0.21267 0.0972,0.2354 -0.0181,0.13969 -0.10685,-0.0887 -0.16108,-0.0707 -0.24174,0.08 -0.0572,0.10686 -0.0799,0.21832 -0.0506,0.24769 0.0294,0.0294 0.008,0.0815 -0.0475,0.11577 -0.062,0.0383 -0.0821,-0.0417 -0.052,-0.20736 0.0415,-0.22907 0.0265,-0.25112 -0.0998,-0.14632 -0.0818,0.0679 -0.13183,0.21093 -0.11122,0.31792 0.043,0.22321 -0.004,0.25093 -0.11798,0.0689 z m 0.40659,-0.50581 c 0.0399,0.0399 0.0419,-0.007 0.005,-0.10462 -0.0374,-0.0974 -0.0742,-0.1639 -0.0818,-0.1477 -0.008,0.0162 -0.10375,0.14253 -0.21372,0.28073 l -0.19994,0.25126 0.20917,-0.1761 c 0.11504,-0.0969 0.24181,-0.14346 0.2817,-0.10357 z m 1.68149,-1.47209 c -0.0864,-0.0534 -0.0967,-0.1052 -0.0292,-0.14693 0.0574,-0.0354 0.13456,-0.0155 0.17156,0.0444 0.0923,0.14936 0.0189,0.20224 -0.1424,0.10255 z m -3.73021,-1.51469 c -0.0592,-0.11056 -0.085,-0.20101 -0.0573,-0.20101 0.0277,0 0.0987,0.0905 0.15784,0.20101 0.0592,0.11056 0.085,0.20101 0.0573,0.20101 -0.0276,0 -0.0987,-0.0905 -0.15783,-0.20101 z m -4.6232905,-4.26076 c 0,-0.0953 0.3008596,-0.14339 0.3544896,-0.0566 0.0327,0.0529 -0.0337,0.0961 -0.1475396,0.0961 -0.11382,0 -0.20695,-0.0178 -0.20695,-0.0395 z m -3.8466,-3.75177 c 0.17842,-0.0222 0.49502,-0.0226 0.70354,-7.6e-4 0.20853,0.0218 0.0626,0.0399 -0.3244,0.0404 -0.38695,3.8e-4 -0.55756,-0.0174 -0.37914,-0.0396 z m -0.72063,-0.1191 c -0.031,-0.0501 0.0342,-0.0675 0.14482,-0.0385 0.23468,0.0614 0.26435,0.12966 0.0563,0.12966 -0.0797,0 -0.17018,-0.041 -0.20115,-0.0911 z m 2.12996,0.0246 c 0.0691,-0.0279 0.18217,-0.0279 0.25126,0 0.0691,0.0279 0.0126,0.0507 -0.12563,0.0507 -0.13819,0 -0.19473,-0.0228 -0.12563,-0.0507 z m 3.0403096,-0.9385 c 0.0829,-0.0536 0.19599,-0.0974 0.2512707,-0.0974 0.0553,0 0.0327,0.0438 -0.0503,0.0974 -0.0829,0.0536 -0.19599,0.0974 -0.25127,0.0974 -0.0553,0 -0.0327,-0.0438 0.050299,-0.0974 z M 10.1797,54.004215 c 0.0682,-0.11031 0.1368,-0.87165 0.21999,-2.44033 0.0337,-0.6357 0.0782,-1.35934 0.0989,-1.6081 0.0207,-0.24875 0.0652,-0.9724 0.0989,-1.6081 0.0337,-0.6357 0.0796,-1.40457 0.10208,-1.7086 0.0224,-0.30403 0.0677,-1.0729 0.10051,-1.70861 0.0329,-0.6357 0.0786,-1.40457 0.10175,-1.7086 0.0231,-0.30403 0.0663,-1.00506 0.0961,-1.55785 0.0518,-0.96268 0.10728,-1.85084 0.2042,-3.26645 0.0246,-0.35931 0.0703,-1.03773 0.10158,-1.50759 0.0313,-0.46987 0.076,-1.10306 0.0994,-1.40709 0.0234,-0.30403 0.0694,-0.93722 0.10208,-1.40709 0.0327,-0.469864 0.0766,-1.057824 0.0975,-1.306575 0.0209,-0.248756 0.0677,-0.859329 0.1041,-1.356836 0.0363,-0.497507 0.0811,-1.062853 0.0994,-1.256327 0.0183,-0.193473 0.0644,-0.826664 0.10259,-1.407088 0.0381,-0.580424 0.0819,-1.123157 0.0972,-1.206074 0.0153,-0.08292 0.0606,-0.670878 0.10074,-1.306579 0.0401,-0.635703 0.0859,-1.225177 0.10186,-1.309943 0.0159,-0.08477 0.0581,-0.6275 0.0938,-1.206075 0.0356,-0.578574 0.0829,-1.21025 0.10511,-1.403725 0.0222,-0.193474 0.0695,-0.781435 0.1052,-1.30658 0.0357,-0.525145 0.0796,-1.113107 0.0976,-1.306581 0.018,-0.193474 0.061,-0.781436 0.0955,-1.306581 0.0345,-0.525144 0.0817,-1.113106 0.10483,-1.30658 0.0231,-0.193474 0.0682,-0.736208 0.10011,-1.206074 0.0319,-0.469867 0.0765,-1.0126 0.0992,-1.206075 0.0226,-0.193474 0.0694,-0.736208 0.10391,-1.206074 0.0345,-0.469867 0.0789,-0.967372 0.0986,-1.105568 0.0197,-0.138196 0.0649,-0.590474 0.10035,-1.005063 0.0355,-0.414588 0.0806,-0.866865 0.10035,-1.005061 0.0197,-0.138196 0.0675,-0.6357013 0.10633,-1.1055686 0.0388,-0.469866 0.088,-0.989985 0.10937,-1.155821 0.0922,-0.716118 0.11152,-4.833435 0.0234,-4.998045 -0.0682,-0.12734 -0.0585,-0.178462 0.0339,-0.179563 0.086,-10e-4 0.0931,-0.0262 0.0213,-0.07538 -0.0593,-0.04061 -0.10025,-0.198217 -0.0909,-0.350232 0.009,-0.152016 -0.0268,-0.276392 -0.0803,-0.276392 -0.0535,0 -0.0392,-0.06998 0.0318,-0.155517 0.156,-0.187974 0.28578,-0.03859 0.30972,0.356529 0.0139,0.229734 0.0189,0.232331 0.0581,0.03031 0.0236,-0.121525 -0.008,-0.316664 -0.071,-0.433641 -0.0911,-0.170306 -0.14247,-0.188914 -0.25757,-0.09338 -0.0791,0.06562 -0.14721,0.07984 -0.15144,0.03162 -0.0108,-0.123609 -0.0613,-0.374406 -0.13136,-0.65317 -0.0425,-0.16892 -0.0191,-0.150542 0.0801,0.06295 0.077,0.165836 0.11482,0.342428 0.084,0.392428 -0.0308,0.05 -0.004,0.05889 0.0591,0.01975 0.12366,-0.07642 -0.0906,-0.718727 -0.30507,-0.914708 -0.0772,-0.07049 -0.086,-0.05834 -0.0295,0.04066 0.0528,0.09248 0.042,0.117366 -0.0311,0.07216 -0.0614,-0.03795 -0.0833,-0.142813 -0.0487,-0.233029 0.0466,-0.121481 0.0259,-0.142536 -0.0798,-0.08117 -0.0785,0.04557 -0.10919,0.04584 -0.0682,6.08e-4 0.041,-0.04523 0.0183,-0.149931 -0.0503,-0.23265704 -0.10785,-0.130025 -0.0839,-0.129353 0.17676,0.005 0.16583,0.08545 0.64072,0.31221704 1.05531,0.50392004 1.91262,0.88438 2.31228,1.102367 2.55925,1.395883 0.39834,0.473398 0.67596,1.078741 0.69245,1.509852 0.008,0.212075 0.0487,0.385634 0.0901,0.385686 0.11372,1.41e-4 0.0905,0.481441 -0.0268,0.553892 -0.0562,0.03472 -0.0781,0.102103 -0.0486,0.149742 0.0294,0.04764 0.007,0.115481 -0.0503,0.150759 -0.0571,0.03528 -0.0734,0.113234 -0.0363,0.173233 0.0412,0.06668 0.0204,0.08004 -0.0535,0.03436 -0.0839,-0.05183 -0.0894,-0.112753 -0.0179,-0.198831 0.0711,-0.08562 0.0668,-0.16033 -0.0139,-0.240946 -0.0888,-0.08879 -0.16623,-0.07494 -0.32252,0.05767 -0.16429,0.139397 -0.1805,0.141804 -0.0805,0.01196 0.10238,-0.132993 0.0941,-0.18782 -0.0457,-0.301519 -0.14927,-0.121438 -0.16285,-0.117708 -0.10772,0.02957 0.0377,0.100635 -0.005,0.220162 -0.10681,0.296672 -0.14016,0.105696 -0.14927,0.104824 -0.0521,-0.005 0.13577,-0.153342 -0.0323,-0.644664 -0.1877,-0.548635 -0.0514,0.03178 -0.0429,0.113576 0.0196,0.188913 0.0812,0.09786 0.0759,0.152707 -0.0203,0.208178 -0.0718,0.04142 -0.0962,0.0375 -0.0542,-0.0087 0.042,-0.04622 -0.0105,-0.177848 -0.11665,-0.292506 -0.22461,-0.242688 -0.29342,-0.550986 -0.16775,-0.751655 0.0586,-0.09359 0.0516,-0.118442 -0.0207,-0.07374 -0.06,0.03708 -0.13796,0.02072 -0.17324,-0.03636 -0.0353,-0.05708 -0.11675,-0.07127 -0.18106,-0.03153 -0.20099,0.124219 -0.46156,0.103779 -0.51695,-0.04055 -0.0292,-0.0761 -0.11857,-0.12494 -0.19861,-0.108527 -0.08,0.01641 -0.13717,-0.01538 -0.12697,-0.07066 0.0102,-0.05528 0.0558,-0.08808 0.10138,-0.07289 0.0456,0.01519 0.0518,-0.02267 0.0138,-0.08414 -0.0465,-0.07517 -0.10227,-0.07855 -0.17048,-0.01034 -0.0558,0.05577 -0.16374,0.07749 -0.23992,0.04826 -0.0762,-0.02923 -0.13852,-0.0031 -0.13852,0.05811 0,0.06119 0.0565,0.09995 0.12564,0.08613 0.0691,-0.01382 0.11056,0.04272 0.0921,0.125632 -0.0184,0.08292 3e-5,0.117231 0.041,0.07625 0.041,-0.04098 0.14388,-0.01837 0.22868,0.05025 0.12297,0.09952 0.1389,0.09934 0.0787,-8.74e-4 -0.0431,-0.07183 -0.0253,-0.125632 0.0417,-0.125632 0.0669,0 0.0903,0.07011 0.0545,0.163498 -0.0345,0.08992 -0.005,0.236914 0.0646,0.326645 0.11013,0.141061 0.10596,0.146463 -0.0308,0.03991 -0.1047,-0.08157 -0.19815,-0.09007 -0.27639,-0.02513 -0.0852,0.07071 -0.0901,0.06442 -0.0177,-0.02249 0.18898,-0.226768 0.10087,-0.312884 -0.1239,-0.121109 -0.14524,0.12392 -0.18026,0.13412 -0.0993,0.02891 0.10238,-0.132992 0.0941,-0.18782 -0.0457,-0.301518 -0.14971,-0.121793 -0.16282,-0.117629 -0.10614,0.0337 0.0356,0.09497 0.0277,0.195547 -0.0176,0.223511 -0.0453,0.02797 -0.075,-0.04974 -0.066,-0.172667 0.0196,-0.270529 -0.13543,-0.776296 -0.23803,-0.776296 -0.0407,0 -0.0739,0.06585 -0.0739,0.146339 0,0.08049 0.0437,0.119359 0.097,0.08639 0.0866,-0.05355 0.0406,2.259054 -0.0734,3.687017 -0.10966,1.373399 -0.21664,2.537815 -0.30474,3.3167046 -0.0282,0.248753 -0.0749,0.723644 -0.10399,1.055315 -0.0291,0.331671 -0.0744,0.806562 -0.10068,1.055315 -0.0263,0.248753 -0.0721,0.746259 -0.10169,1.105568 -0.13909,1.687517 -0.22811,2.753357 -0.30223,3.618223 -0.0261,0.304032 -0.0704,0.891993 -0.0986,1.306581 -0.0282,0.414588 -0.0726,1.002549 -0.0986,1.30658 -0.0823,0.959996 -0.14308,1.732043 -0.20581,2.613162 -0.0335,0.469866 -0.0774,1.057827 -0.0977,1.30658 -0.0202,0.248753 -0.0663,0.836714 -0.10226,1.306581 -0.036,0.469866 -0.08,1.012599 -0.0979,1.206073 -0.0179,0.193473 -0.0634,0.781437 -0.10127,1.306583 -0.0378,0.525142 -0.0838,1.113106 -0.10221,1.306579 -0.0184,0.193473 -0.0635,0.75882 -0.10016,1.256327 -0.0367,0.497507 -0.0817,1.062853 -0.10006,1.256327 -0.0183,0.193473 -0.0637,0.804051 -0.10083,1.356835 -0.0371,0.552785 -0.0829,1.163359 -0.10164,1.356837 -0.0188,0.19347 -0.0634,0.82666 -0.0992,1.40708 -0.0358,0.58043 -0.0805,1.21361 -0.0994,1.40709 -0.0189,0.19347 -0.0636,0.84928 -0.0993,1.45734 -0.0357,0.60806 -0.0819,1.30909 -0.10268,1.55785 -0.0207,0.24875 -0.0678,0.99501 -0.10461,1.65835 -0.0368,0.66334 -0.0821,1.43221 -0.10066,1.7086 -0.0185,0.27639 -0.0615,1.02265 -0.0955,1.65835 -0.034,0.63571 -0.0791,1.35935 -0.10035,1.60811 -0.0212,0.24875 -0.0687,0.99501 -0.10551,1.65835 -0.0368,0.66334 -0.0821,1.43221 -0.10066,1.7086 -0.0185,0.27639 -0.0649,1.02265 -0.10293,1.65835 -0.0381,0.63571 -0.0813,1.2689 -0.0962,1.40709 -0.0149,0.1382 -0.0315,0.44189 -0.0369,0.67488 -0.008,0.3226 -0.0608,0.45082 -0.22311,0.53769 -0.11722,0.0627 -0.18744,0.0725 -0.15604,0.0217 z M 17.44334,4.5809654 c 0.0114,-0.07766 -0.0758,-0.223343 -0.19381,-0.323736 -0.16768,-0.142663 -0.18641,-0.146069 -0.0858,-0.01559 0.0869,0.112598 0.0945,0.188139 0.0234,0.23207 -0.058,0.03582 -0.10608,0.0059 -0.10692,-0.06643 -0.001,-0.0968 -0.03,-0.09173 -0.10923,0.01919 -0.0868,0.121534 -0.0983,0.107588 -0.059,-0.07194 0.0294,-0.134752 0.003,-0.214137 -0.0667,-0.201012 -0.0634,0.01193 -0.10147,-0.0425 -0.0845,-0.120955 0.0239,-0.110493 -3.8e-4,-0.116696 -0.10792,-0.02752 -0.1047,0.0869 -0.17133,0.08491 -0.27168,-0.0081 -0.0731,-0.06778 -0.1067,-0.07585 -0.0746,-0.01794 0.0321,0.05792 0.0129,0.170987 -0.0426,0.251265 -0.0746,0.107846 -0.0908,0.06205 -0.0618,-0.175376 0.0215,-0.176736 0.002,-0.298443 -0.0431,-0.270461 -0.11659,0.07206 -0.10238,0.51728 0.0189,0.592237 0.0557,0.0344 0.13039,-0.01346 0.16604,-0.106369 0.056,-0.145889 0.0839,-0.13648 0.2045,0.06901 l 0.13967,0.237932 -0.0669,-0.251265 c -0.0757,-0.284047 0.0315,-0.218383 0.20212,0.123853 0.0625,0.125355 0.16506,0.227919 0.22792,0.227919 0.0629,0 0.14821,0.03392 0.18967,0.07538 0.0908,0.09085 0.17423,0.01995 0.20242,-0.172148 z m -0.20651,0.05346 c -0.0318,-0.05146 -0.0194,-0.117311 0.0276,-0.146338 0.047,-0.02903 0.0854,0.01308 0.0854,0.09356 0,0.16947 -0.0317,0.184277 -0.11297,0.05278 z m -1.86365,-1.15046 c 0,-0.02087 -0.0791,-0.100019 -0.17589,-0.175886 -0.15941,-0.125016 -0.16296,-0.121462 -0.0379,0.03795 0.1313,0.167419 0.21384,0.22066 0.21384,0.137939 z M 13.98196,51.262355 c 0,-0.13819 0.0228,-0.19473 0.0507,-0.12563 0.0279,0.0691 0.0279,0.18217 0,0.25126 -0.0279,0.0691 -0.0507,0.0126 -0.0507,-0.12563 z m 0.0926,-1.36521 c 0.005,-0.11708 0.0286,-0.1409 0.0607,-0.0607 0.029,0.0726 0.0255,0.15924 -0.008,0.19264 -0.0334,0.0334 -0.0572,-0.0259 -0.0528,-0.13191 z m 0.20895,-2.95655 c 0,-0.1382 0.0228,-0.19473 0.0507,-0.12564 0.0279,0.0691 0.0279,0.18217 0,0.25127 -0.0279,0.0691 -0.0507,0.0126 -0.0507,-0.12563 z m 0.0926,-1.26471 c 0.005,-0.11708 0.0286,-0.1409 0.0607,-0.0607 0.029,0.0726 0.0254,0.15924 -0.008,0.19264 -0.0334,0.0334 -0.0571,-0.026 -0.0528,-0.13191 z m 0.11589,-1.54947 c 0,-0.19347 0.0207,-0.27262 0.046,-0.17589 0.0253,0.0967 0.0253,0.25504 0,0.35178 -0.0253,0.0967 -0.046,0.0176 -0.046,-0.17589 z m 0.18563,-2.7723 c 0.005,-0.11708 0.0286,-0.1409 0.0607,-0.0607 0.029,0.0726 0.0255,0.15924 -0.008,0.19264 -0.0334,0.0334 -0.0572,-0.026 -0.0528,-0.13191 z m 0.10051,-1.60809 c 0.005,-0.11709 0.0286,-0.1409 0.0607,-0.0607 0.029,0.0726 0.0255,0.15924 -0.008,0.19263 -0.0334,0.0334 -0.0571,-0.026 -0.0528,-0.13191 z m 0.1005,-1.20608 c 0.005,-0.11708 0.0286,-0.1409 0.0607,-0.0607 0.029,0.0726 0.0255,0.15924 -0.008,0.19264 -0.0334,0.0334 -0.0572,-0.026 -0.0528,-0.13192 z m 0.11217,-1.39871 c 0.002,-0.16583 0.0246,-0.22151 0.05,-0.12372 0.0255,0.0978 0.0238,0.23348 -0.004,0.30152 -0.0275,0.068 -0.0484,-0.012 -0.0463,-0.1778 z m 0.0888,-1.31495 c 0.005,-0.11709 0.0286,-0.1409 0.0607,-0.0607 0.029,0.0725 0.0255,0.15924 -0.008,0.19263 -0.0334,0.0334 -0.0572,-0.0259 -0.0528,-0.13191 z m 0.10051,-1.10557 c 0.005,-0.11709 0.0286,-0.1409 0.0607,-0.0607 0.029,0.0725 0.0255,0.15923 -0.008,0.19263 -0.0334,0.0334 -0.0572,-0.0259 -0.0528,-0.13191 z m 0.10844,-1.348461 c 0,-0.138199 0.0228,-0.19473 0.0507,-0.125633 0.0279,0.0691 0.0279,0.182165 0,0.251263 -0.0279,0.0691 -0.0507,0.01257 -0.0507,-0.12563 z m 0.20101,-2.311643 c 0,-0.138196 0.0228,-0.194731 0.0507,-0.125633 0.0279,0.0691 0.0279,0.182168 0,0.251266 -0.0279,0.0691 -0.0507,0.01257 -0.0507,-0.125633 z m 0.0926,-1.164198 c 0.005,-0.117083 0.0286,-0.1409 0.0607,-0.06072 0.029,0.07255 0.0255,0.15924 -0.008,0.192638 -0.0334,0.03339 -0.0572,-0.02595 -0.0528,-0.131916 z m 0.20895,-2.253012 c 0,-0.138199 0.0228,-0.194734 0.0507,-0.125633 0.0279,0.0691 0.0279,0.182165 0,0.251262 -0.0279,0.0691 -0.0507,0.01257 -0.0507,-0.125629 z m 0.19308,-2.16926 c 0.005,-0.117085 0.0286,-0.1409 0.0607,-0.06072 0.029,0.07255 0.0255,0.15924 -0.008,0.192637 -0.0334,0.0334 -0.0572,-0.02596 -0.0528,-0.131914 z m 0.1005,-1.306581 c 0.005,-0.117084 0.0286,-0.140899 0.0607,-0.06072 0.029,0.07255 0.0255,0.15924 -0.008,0.192638 -0.0334,0.0334 -0.0572,-0.02596 -0.0528,-0.131915 z m 0.20895,-2.253014 c 0,-0.138196 0.0228,-0.194731 0.0507,-0.125633 0.0279,0.0691 0.0279,0.182168 0,0.251266 -0.0279,0.0691 -0.0507,0.01256 -0.0507,-0.125633 z m 0.29359,-3.576345 c 0.005,-0.117085 0.0286,-0.1409 0.0607,-0.06072 0.029,0.07255 0.0254,0.159239 -0.008,0.192637 -0.0334,0.0334 -0.0571,-0.02596 -0.0528,-0.131914 z m 0.20894,-2.052002 c 0,-0.138196 0.0228,-0.194731 0.0507,-0.125633 0.0279,0.0691 0.0279,0.182168 0,0.251266 -0.0279,0.0691 -0.0507,0.01256 -0.0507,-0.125633 z m 0.50253,-4.924804 c 0,-0.138196 0.0228,-0.194731 0.0507,-0.125633 0.0279,0.0691 0.0279,0.182168 0,0.251266 -0.0279,0.0691 -0.0507,0.01256 -0.0507,-0.125633 z m 0.19308,-1.9682456 c 0.005,-0.117085 0.0286,-0.1409 0.0607,-0.06072 0.029,0.07255 0.0255,0.1592393 -0.008,0.1926373 -0.0334,0.0334 -0.0572,-0.02596 -0.0528,-0.1319143 z m 0.10844,-1.750483 c 0,-0.138196 0.0228,-0.194731 0.0507,-0.125633 0.0279,0.0691 0.0279,0.182168 0,0.251266 -0.0279,0.0691 -0.0507,0.01256 -0.0507,-0.125633 z m -0.008,-0.460654 c 0.005,-0.117083 0.0286,-0.140899 0.0607,-0.06072 0.029,0.07255 0.0255,0.159239 -0.008,0.192637 -0.0334,0.0334 -0.0572,-0.02596 -0.0528,-0.131915 z m 0.0174,-1.700229 c 0.001,-0.221114 0.0217,-0.299735 0.0457,-0.174714 0.0241,0.125021 0.0231,0.305932 -0.002,0.402025 -0.0251,0.09609 -0.0448,-0.0062 -0.0437,-0.227311 z m -1.99476,-0.979936 -0.19147,-0.226139 0.22614,0.191463 c 0.12438,0.105305 0.22614,0.207067 0.22614,0.226139 0,0.08043 -0.0809,0.02105 -0.26081,-0.191463 z m 0.29112,0 c -0.11315,-0.124376 -0.18152,-0.293981 -0.15193,-0.376898 0.0457,-0.127947 0.0291,-0.130395 -0.10925,-0.01618 -0.1423,0.117447 -0.1579,0.107803 -0.12255,-0.07576 0.0578,-0.299982 0.1509,-0.423392 0.26588,-0.352332 0.0575,0.03551 0.0226,0.121327 -0.0823,0.202898 -0.17502,0.136011 -0.17492,0.138914 0.003,0.07676 0.14499,-0.05074 0.17733,-0.02077 0.15076,0.139678 -0.0186,0.112349 0.0523,0.299602 0.15763,0.416118 0.1053,0.116517 0.16972,0.211848 0.14315,0.211848 -0.0266,0 -0.14089,-0.101762 -0.25405,-0.226139 z m -0.65992,-0.135459 c -0.0331,-0.03304 -0.0355,-0.124075 -0.006,-0.202292 0.03,-0.07822 0.007,-0.200028 -0.0521,-0.27069 -0.0802,-0.09663 -0.0568,-0.132227 0.0942,-0.143603 0.16329,-0.0123 0.18754,0.02601 0.12983,0.205137 -0.039,0.121144 -0.0714,0.276797 -0.0719,0.345895 -10e-4,0.142695 -0.0107,0.149374 -0.0945,0.06555 z"
       id="path102225" />
  </g>
  <g
     inkscape:groupmode="layer"
     id="layer2"
     inkscape:label="Слой 2"
     style="display:inline">
    <path
       style="display:inline;opacity:0.5;fill:#0173fe;stroke-width:0.100506"
       d="m 5.01463,78.247645 c -1.65939,-0.62382 -2.9202,-2.06801 -3.62064,-4.14722 -0.68113,-2.0219 -0.87822,-5.4412 -0.4554,-7.90043 0.40627,-2.36296 1.45649,-4.27378 2.98363,-5.42859 0.8014,-0.60602 2.30693,-1.34158 3.07318,-1.50148 0.84943,-0.17726 1.8081,-0.12037 2.60486,0.15457 0.84953,0.29314 1.49786,0.64677 1.46136,0.79708 -0.0152,0.0626 0.022,0.0831 0.0826,0.0456 0.18443,-0.11398 1.64051,1.55716 1.72832,1.98359 0.0142,0.0689 0.0827,0.18646 0.15233,0.26133 0.0696,0.0749 0.10325,0.17385 0.0748,0.21995 -0.0285,0.0461 -0.0176,0.099 0.0242,0.11753 0.13639,0.0605 0.42326,0.77843 0.33326,0.83405 -0.10105,0.0625 -0.0244,0.43277 0.10634,0.51355 0.0484,0.0299 0.0441,-0.0612 -0.01,-0.20258 -0.0537,-0.14135 -0.0748,-0.25701 -0.0467,-0.25701 0.10602,0 0.21873,0.45685 0.13766,0.55802 -0.11035,0.13771 -0.002,0.5471 0.14473,0.54909 0.0626,7.6e-4 0.0461,0.0454 -0.0368,0.099 -0.12413,0.0802 -0.12561,0.0977 -0.008,0.099 0.0783,7.6e-4 0.1175,0.0264 0.0871,0.0568 -0.0304,0.0304 -0.0165,0.22262 0.031,0.42715 0.15396,0.66369 0.22955,1.65057 0.23251,3.03528 0.004,1.71807 -0.0822,2.59363 -0.38558,3.9325 -0.92452,4.07983 -3.29091,6.09282 -7.06069,6.00627 -0.77787,-0.0178 -1.16992,-0.0786 -1.63396,-0.25301 z m 8.336,-14.81158 c -0.0592,-0.11056 -0.1302,-0.20101 -0.15784,-0.20101 -0.0277,0 -0.002,0.0905 0.0573,0.20101 0.0592,0.11056 0.13019,0.20101 0.15783,0.20101 0.0277,0 0.002,-0.0905 -0.0573,-0.20101 z m -0.36314,-0.82244 c -0.029,-0.047 -0.0949,-0.0594 -0.14634,-0.0276 -0.0515,0.0318 -0.0936,0.0362 -0.0936,0.01 0,-0.0264 -0.0303,-0.12692 -0.0673,-0.22343 -0.0495,-0.12905 -0.0321,-0.1537 0.0658,-0.0932 0.0892,0.0551 0.10914,0.0435 0.0604,-0.0354 -0.04,-0.0647 -0.12252,-0.0869 -0.18337,-0.0493 -0.0719,0.0444 -0.0875,0.008 -0.0445,-0.10409 0.0393,-0.10244 0.0258,-0.14753 -0.0332,-0.11106 -0.0911,0.0563 -0.14397,-0.0819 -0.10877,-0.28458 0.008,-0.0456 -0.0297,-0.0556 -0.0836,-0.0223 -0.10088,0.0623 -0.37044,-0.33243 -0.32791,-0.48022 0.0131,-0.0456 -0.0156,-0.0585 -0.0638,-0.0287 -0.12489,0.0772 -0.63942,-0.4863 -0.54693,-0.59896 0.0422,-0.0514 0.0352,-0.0595 -0.0157,-0.0178 -0.0509,0.0417 -0.20916,10e-4 -0.35177,-0.0901 -0.14261,-0.0912 0.0397,0.14643 0.40511,0.52814 0.36542,0.38171 0.80563,0.92354 0.97824,1.20409 0.17262,0.28054 0.38047,0.51007 0.46188,0.51007 0.0814,0 0.12428,-0.0384 0.0953,-0.0854 z m 1.18306,3.13409 c 0,-0.1382 0.0228,-0.19473 0.0507,-0.12564 0.0279,0.0691 0.0279,0.18217 0,0.25127 -0.0279,0.0691 -0.0507,0.0126 -0.0507,-0.12563 z m -0.15407,-0.6156 c -0.0838,-0.41894 -0.003,-0.50014 0.0879,-0.0879 0.0382,0.17373 0.0484,0.33684 0.0228,0.36244 -0.0256,0.0256 -0.0754,-0.0979 -0.11077,-0.2745 z m -9.76166,-9.83021 c -0.11056,-0.0438 -0.25717,-0.0585 -0.3258,-0.0327 -0.183,0.0686 -0.2058,-0.0635 -0.32506,-1.8837 -0.0598,-0.9121 -0.12891,-1.95234 -0.15365,-2.31165 -0.0667,-0.968 -0.14172,-2.08647 -0.2496,-3.71873 -0.10966,-1.65921 -0.37911,-5.15287 -0.4496,-5.82936 -0.0259,-0.24875 -0.0731,-0.81411 -0.10489,-1.25633 -0.0318,-0.44223 -0.0994,-1.25633 -0.15032,-1.80911 -0.095,-1.03121 -0.26574,-2.94909 -0.35797,-4.02026 -0.0286,-0.33167 -0.0947,-1.032697 -0.14689,-1.557837 -0.0522,-0.52515 -0.16337,-1.65584 -0.24697,-2.51266 -0.0836,-0.85682 -0.19721,-1.98751 -0.25246,-2.51266 -0.0552,-0.52514 -0.2144,-2.04028 -0.35368,-3.36696 -0.13929,-1.32668 -0.32073,-3.00011 -0.40321,-3.71873 -0.0825,-0.71861 -0.19546,-1.71362 -0.25105,-2.21113 -0.0556,-0.4975 -0.16831,-1.44541 -0.25047,-2.10646 -0.0822,-0.66104 -0.14939,-1.29836 -0.14939,-1.41626 0,-0.12644 0.37502,-0.64348 0.91424,-1.26051 3.1182,-3.56805 6.30792,-7.932201 8.62475,-11.800311 0.94812,-1.58295 1.05445,-1.72114 1.44592,-1.87902 1.11576,-0.45001 2.03522,-0.0318 2.52917,1.15039 0.11214,0.2684 0.12224,0.3851 0.0378,0.43727 -0.0633,0.0391 -0.0899,0.0302 -0.0591,-0.0198 0.0308,-0.05 -0.007,-0.22659 -0.084,-0.39243 -0.0992,-0.21349 -0.12254,-0.23187 -0.0801,-0.063 0.0701,0.27876 0.12051,0.52956 0.13135,0.65317 0.004,0.0482 0.0724,0.034 0.15144,-0.0316 0.11511,-0.0955 0.16644,-0.0769 0.25758,0.0934 0.0626,0.11698 0.0945,0.31211 0.0709,0.43364 -0.0392,0.20202 -0.0442,0.19942 -0.0581,-0.0303 -0.0239,-0.39512 -0.15372,-0.5445 -0.30972,-0.35653 -0.071,0.0855 -0.0853,0.15552 -0.0318,0.15552 0.0535,0 0.0896,0.12437 0.0803,0.27639 -0.009,0.15201 0.0316,0.30962 0.0909,0.35023 0.0719,0.0492 0.0648,0.0744 -0.0213,0.0754 -0.0924,0.001 -0.10204,0.0522 -0.0339,0.17956 0.0881,0.16461 0.0688,4.28193 -0.0234,4.99805 -0.0213,0.16584 -0.0706,0.68596 -0.10937,1.15583 -0.0388,0.469861 -0.0866,0.967371 -0.10634,1.105561 -0.0197,0.1382 -0.0648,0.59048 -0.10034,1.00507 -0.0355,0.41459 -0.0807,0.86686 -0.10035,1.00506 -0.0197,0.1382 -0.0641,0.6357 -0.0986,1.10557 -0.0345,0.46987 -0.0813,1.0126 -0.10391,1.20608 -0.0226,0.19347 -0.0672,0.7362 -0.0992,1.20607 -0.0319,0.46987 -0.077,1.0126 -0.1001,1.20608 -0.0231,0.19347 -0.0703,0.78143 -0.10483,1.30658 -0.0345,0.52514 -0.0775,1.11311 -0.0955,1.30658 -0.018,0.19347 -0.062,0.78144 -0.0976,1.30658 -0.0357,0.52515 -0.083,1.11311 -0.10519,1.30658 -0.0221,0.19348 -0.0695,0.82515 -0.10511,1.40373 -0.0356,0.57858 -0.0778,1.12131 -0.0938,1.20608 -0.0159,0.0848 -0.0618,0.67424 -0.10186,1.30994 -0.0401,0.6357 -0.0854,1.22367 -0.10073,1.30658 -0.0153,0.0829 -0.0591,0.62565 -0.0972,1.20608 -0.0382,0.58042 -0.0843,1.21361 -0.10259,1.40708 -0.0183,0.19348 -0.063,0.75883 -0.0994,1.25633 -0.0364,0.49751 -0.0832,1.10808 -0.1041,1.35684 -0.0209,0.24875 -0.0648,0.83671 -0.0975,1.306577 -0.0328,0.46987 -0.0787,1.10306 -0.10208,1.40709 -0.0234,0.30403 -0.0682,0.93722 -0.0994,1.40709 -0.0313,0.46986 -0.077,1.14828 -0.10158,1.50759 -0.0969,1.41562 -0.15244,2.30378 -0.2042,3.26646 -0.0297,0.55278 -0.0732,1.25381 -0.0966,1.55784 -0.0234,0.30404 -0.0702,1.09552 -0.10395,1.75886 -0.0338,0.66334 -0.0782,1.4096 -0.0987,1.65836 -0.0206,0.24875 -0.067,1.01762 -0.10329,1.7086 -0.0363,0.69098 -0.0802,1.41462 -0.0976,1.60811 -0.0174,0.19347 -0.0636,0.93973 -0.10268,1.65835 -0.0391,0.71862 -0.0838,1.44226 -0.0994,1.6081 -0.0156,0.16583 -0.0329,0.40612 -0.0384,0.53396 -0.0109,0.25334 -0.59004,0.56006 -2.12914,1.12754 -1.40673,0.51868 -3.314,0.7624 -3.96146,0.50623 z M 13.21473,0.768837 c -0.0894,-0.0654 -0.14059,-0.14827 -0.11381,-0.18426 0.0268,-0.036 0.0189,-0.0432 -0.0174,-0.0161 -0.0882,0.0658 -0.34598,-0.15276 -0.28896,-0.24503 0.0246,-0.0398 -0.01,-0.0766 -0.0765,-0.0818 -0.0667,-0.005 -0.23428,-0.0398 -0.37248,-0.0769 -0.23107,-0.062 -0.22704,-0.0516 0.0503,0.12909 0.16584,0.10808 0.38086,0.2859 0.47783,0.39516 0.097,0.10926 0.24994,0.19865 0.33994,0.19865 0.15053,0 0.15063,-0.01 0.001,-0.11882 z"
       id="path102227" />
  </g>
</svg>
